<?xml version="1.0" encoding="UTF-8"?>
<!--Generator: Apple Native CoreSVG 175-->
<!DOCTYPE svg
PUBLIC "-//W3C//DTD SVG 1.1//EN"
       "http://www.w3.org/Graphics/SVG/1.1/DTD/svg11.dtd">
<svg version="1.1" xmlns="http://www.w3.org/2000/svg" xmlns:xlink="http://www.w3.org/1999/xlink" width="3300" height="2200">
 <!--glyph: "uni100D4B.medium", point size: 100.0, font version: "17.3d3e1", template writer version: "65.1"-->
 <g id="Notes">
  <rect height="2200" id="artboard" style="fill:white;opacity:1" width="3300" x="0" y="0"/>
  <line style="fill:none;stroke:black;opacity:1;stroke-width:0.5;" x1="263" x2="3036" y1="292" y2="292"/>
  <text style="stroke:none;fill:black;font-family:sans-serif;font-size:13;font-weight:bold;" transform="matrix(1 0 0 1 263 322)">Weight/Scale Variations</text>
  <text style="stroke:none;fill:black;font-family:sans-serif;font-size:13;text-anchor:middle;" transform="matrix(1 0 0 1 559.711 322)">Ultralight</text>
  <text style="stroke:none;fill:black;font-family:sans-serif;font-size:13;text-anchor:middle;" transform="matrix(1 0 0 1 856.422 322)">Thin</text>
  <text style="stroke:none;fill:black;font-family:sans-serif;font-size:13;text-anchor:middle;" transform="matrix(1 0 0 1 1153.13 322)">Light</text>
  <text style="stroke:none;fill:black;font-family:sans-serif;font-size:13;text-anchor:middle;" transform="matrix(1 0 0 1 1449.84 322)">Regular</text>
  <text style="stroke:none;fill:black;font-family:sans-serif;font-size:13;text-anchor:middle;" transform="matrix(1 0 0 1 1746.56 322)">Medium</text>
  <text style="stroke:none;fill:black;font-family:sans-serif;font-size:13;text-anchor:middle;" transform="matrix(1 0 0 1 2043.27 322)">Semibold</text>
  <text style="stroke:none;fill:black;font-family:sans-serif;font-size:13;text-anchor:middle;" transform="matrix(1 0 0 1 2339.98 322)">Bold</text>
  <text style="stroke:none;fill:black;font-family:sans-serif;font-size:13;text-anchor:middle;" transform="matrix(1 0 0 1 2636.69 322)">Heavy</text>
  <text style="stroke:none;fill:black;font-family:sans-serif;font-size:13;text-anchor:middle;" transform="matrix(1 0 0 1 2933.4 322)">Black</text>
  <line style="fill:none;stroke:black;opacity:1;stroke-width:0.5;" x1="263" x2="3036" y1="1903" y2="1903"/>
  <g transform="matrix(1 0 0 1 263 1933)">
   <path d="M9.24805 0.830078Q10.8691 0.830078 12.2949 0.214844Q13.7207-0.400391 14.8096-1.49414Q15.8984-2.58789 16.5186-4.01367Q17.1387-5.43945 17.1387-7.05078Q17.1387-8.66211 16.5186-10.0879Q15.8984-11.5137 14.8047-12.6074Q13.7109-13.7012 12.2852-14.3164Q10.8594-14.9316 9.23828-14.9316Q7.62695-14.9316 6.20117-14.3164Q4.77539-13.7012 3.69141-12.6074Q2.60742-11.5137 1.9873-10.0879Q1.36719-8.66211 1.36719-7.05078Q1.36719-5.43945 1.9873-4.01367Q2.60742-2.58789 3.69629-1.49414Q4.78516-0.400391 6.21094 0.214844Q7.63672 0.830078 9.24805 0.830078ZM9.24805-0.654297Q7.91992-0.654297 6.7627-1.14746Q5.60547-1.64062 4.73145-2.51953Q3.85742-3.39844 3.36426-4.56055Q2.87109-5.72266 2.87109-7.05078Q2.87109-8.37891 3.35938-9.54102Q3.84766-10.7031 4.72168-11.582Q5.5957-12.4609 6.75293-12.9541Q7.91016-13.4473 9.23828-13.4473Q10.5762-13.4473 11.7334-12.9541Q12.8906-12.4609 13.7695-11.582Q14.6484-10.7031 15.1465-9.54102Q15.6445-8.37891 15.6445-7.05078Q15.6445-5.72266 15.1514-4.56055Q14.6582-3.39844 13.7842-2.51953Q12.9102-1.64062 11.748-1.14746Q10.5859-0.654297 9.24805-0.654297ZM5.6543-7.05078Q5.6543-6.72852 5.85938-6.52832Q6.06445-6.32812 6.40625-6.32812L8.51562-6.32812L8.51562-4.20898Q8.51562-3.88672 8.71094-3.67676Q8.90625-3.4668 9.23828-3.4668Q9.56055-3.4668 9.77051-3.67676Q9.98047-3.88672 9.98047-4.20898L9.98047-6.32812L12.0898-6.32812Q12.4219-6.32812 12.627-6.52832Q12.832-6.72852 12.832-7.05078Q12.832-7.38281 12.627-7.58789Q12.4219-7.79297 12.0898-7.79297L9.98047-7.79297L9.98047-9.90234Q9.98047-10.2344 9.77051-10.4443Q9.56055-10.6543 9.23828-10.6543Q8.90625-10.6543 8.71094-10.4443Q8.51562-10.2344 8.51562-9.90234L8.51562-7.79297L6.40625-7.79297Q6.06445-7.79297 5.85938-7.58789Q5.6543-7.38281 5.6543-7.05078Z"/>
  </g>
  <g transform="matrix(1 0 0 1 281.867 1933)">
   <path d="M11.709 2.91016Q13.75 2.91016 15.5518 2.12891Q17.3535 1.34766 18.7305-0.0292969Q20.1074-1.40625 20.8887-3.20801Q21.6699-5.00977 21.6699-7.05078Q21.6699-9.0918 20.8887-10.8936Q20.1074-12.6953 18.7305-14.0723Q17.3535-15.4492 15.5469-16.2305Q13.7402-17.0117 11.6992-17.0117Q9.6582-17.0117 7.85645-16.2305Q6.05469-15.4492 4.68262-14.0723Q3.31055-12.6953 2.5293-10.8936Q1.74805-9.0918 1.74805-7.05078Q1.74805-5.00977 2.5293-3.20801Q3.31055-1.40625 4.6875-0.0292969Q6.06445 1.34766 7.86621 2.12891Q9.66797 2.91016 11.709 2.91016ZM11.709 1.25Q9.98047 1.25 8.47656 0.605469Q6.97266-0.0390625 5.83496-1.17676Q4.69727-2.31445 4.05762-3.81836Q3.41797-5.32227 3.41797-7.05078Q3.41797-8.7793 4.05762-10.2832Q4.69727-11.7871 5.83008-12.9297Q6.96289-14.0723 8.4668-14.7119Q9.9707-15.3516 11.6992-15.3516Q13.4277-15.3516 14.9316-14.7119Q16.4355-14.0723 17.5781-12.9297Q18.7207-11.7871 19.3652-10.2832Q20.0098-8.7793 20.0098-7.05078Q20.0098-5.32227 19.3701-3.81836Q18.7305-2.31445 17.5928-1.17676Q16.4551-0.0390625 14.9463 0.605469Q13.4375 1.25 11.709 1.25ZM7.17773-7.05078Q7.17773-6.69922 7.41211-6.47461Q7.64648-6.25 8.01758-6.25L10.8887-6.25L10.8887-3.36914Q10.8887-2.99805 11.1133-2.76855Q11.3379-2.53906 11.6895-2.53906Q12.0605-2.53906 12.29-2.76855Q12.5195-2.99805 12.5195-3.36914L12.5195-6.25L15.4004-6.25Q15.7715-6.25 16.001-6.47461Q16.2305-6.69922 16.2305-7.05078Q16.2305-7.42188 16.001-7.65137Q15.7715-7.88086 15.4004-7.88086L12.5195-7.88086L12.5195-10.752Q12.5195-11.1328 12.29-11.3623Q12.0605-11.5918 11.6895-11.5918Q11.3379-11.5918 11.1133-11.3574Q10.8887-11.123 10.8887-10.752L10.8887-7.88086L8.01758-7.88086Q7.63672-7.88086 7.40723-7.65137Q7.17773-7.42188 7.17773-7.05078Z"/>
  </g>
  <g transform="matrix(1 0 0 1 305.646 1933)">
   <path d="M14.9707 5.66406Q17.0605 5.66406 18.96 5.01465Q20.8594 4.36523 22.4512 3.19336Q24.043 2.02148 25.2197 0.429688Q26.3965-1.16211 27.0459-3.06641Q27.6953-4.9707 27.6953-7.05078Q27.6953-9.14062 27.0459-11.04Q26.3965-12.9395 25.2197-14.5312Q24.043-16.123 22.4512-17.2998Q20.8594-18.4766 18.9551-19.126Q17.0508-19.7754 14.9609-19.7754Q12.8711-19.7754 10.9717-19.126Q9.07227-18.4766 7.48535-17.2998Q5.89844-16.123 4.72168-14.5312Q3.54492-12.9395 2.90039-11.04Q2.25586-9.14062 2.25586-7.05078Q2.25586-4.9707 2.90527-3.06641Q3.55469-1.16211 4.72656 0.429688Q5.89844 2.02148 7.49023 3.19336Q9.08203 4.36523 10.9814 5.01465Q12.8809 5.66406 14.9707 5.66406ZM14.9707 3.84766Q13.1641 3.84766 11.5283 3.2959Q9.89258 2.74414 8.53516 1.74805Q7.17773 0.751953 6.17676-0.610352Q5.17578-1.97266 4.62891-3.6084Q4.08203-5.24414 4.08203-7.05078Q4.08203-8.86719 4.62891-10.5029Q5.17578-12.1387 6.17188-13.501Q7.16797-14.8633 8.52539-15.8594Q9.88281-16.8555 11.5186-17.4023Q13.1543-17.9492 14.9609-17.9492Q16.7773-17.9492 18.4131-17.4023Q20.0488-16.8555 21.4111-15.8594Q22.7734-14.8633 23.7695-13.501Q24.7656-12.1387 25.3174-10.5029Q25.8691-8.86719 25.8691-7.05078Q25.8789-5.24414 25.332-3.6084Q24.7852-1.97266 23.7842-0.610352Q22.7832 0.751953 21.4209 1.74805Q20.0586 2.74414 18.4229 3.2959Q16.7871 3.84766 14.9707 3.84766ZM9.19922-7.05078Q9.19922-6.66992 9.45801-6.4209Q9.7168-6.17188 10.1172-6.17188L14.0625-6.17188L14.0625-2.2168Q14.0625-1.81641 14.3115-1.55762Q14.5605-1.29883 14.9512-1.29883Q15.3516-1.29883 15.6104-1.55273Q15.8691-1.80664 15.8691-2.2168L15.8691-6.17188L19.8242-6.17188Q20.2246-6.17188 20.4785-6.4209Q20.7324-6.66992 20.7324-7.05078Q20.7324-7.46094 20.4785-7.71484Q20.2246-7.96875 19.8242-7.96875L15.8691-7.96875L15.8691-11.9141Q15.8691-12.3242 15.6104-12.583Q15.3516-12.8418 14.9512-12.8418Q14.5605-12.8418 14.3115-12.583Q14.0625-12.3242 14.0625-11.9141L14.0625-7.96875L10.1172-7.96875Q9.70703-7.96875 9.45312-7.71484Q9.19922-7.46094 9.19922-7.05078Z"/>
  </g>
  <text style="stroke:none;fill:black;font-family:sans-serif;font-size:13;font-weight:bold;" transform="matrix(1 0 0 1 263 1953)">Design Variations</text>
  <text style="stroke:none;fill:black;font-family:sans-serif;font-size:13;" transform="matrix(1 0 0 1 263 1971)">Symbols are supported in up to nine weights and three scales.</text>
  <text style="stroke:none;fill:black;font-family:sans-serif;font-size:13;" transform="matrix(1 0 0 1 263 1989)">For optimal layout with text and other symbols, vertically align</text>
  <text style="stroke:none;fill:black;font-family:sans-serif;font-size:13;" transform="matrix(1 0 0 1 263 2007)">symbols with the adjacent text.</text>
  <line style="fill:none;stroke:#00AEEF;stroke-width:0.5;opacity:1.0;" x1="776" x2="776" y1="1919" y2="1933"/>
  <g transform="matrix(1 0 0 1 776 1933)">
   <path d="M3.31055 0.15625Q3.70117 0.15625 3.91602-0.00976562Q4.13086-0.175781 4.26758-0.585938L5.52734-4.0332L11.2891-4.0332L12.5488-0.585938Q12.6855-0.175781 12.9004-0.00976562Q13.1152 0.15625 13.4961 0.15625Q13.8867 0.15625 14.1162-0.0585938Q14.3457-0.273438 14.3457-0.644531Q14.3457-0.869141 14.2383-1.17188L9.6582-13.3691Q9.48242-13.8184 9.17969-14.043Q8.87695-14.2676 8.4082-14.2676Q7.5-14.2676 7.17773-13.3789L2.59766-1.16211Q2.49023-0.859375 2.49023-0.634766Q2.49023-0.263672 2.70996-0.0537109Q2.92969 0.15625 3.31055 0.15625ZM6.00586-5.51758L8.37891-12.0898L8.42773-12.0898L10.8008-5.51758Z"/>
  </g>
  <line style="fill:none;stroke:#00AEEF;stroke-width:0.5;opacity:1.0;" x1="793.197" x2="793.197" y1="1919" y2="1933"/>
  <text style="stroke:none;fill:black;font-family:sans-serif;font-size:13;font-weight:bold;" transform="matrix(1 0 0 1 776 1953)">Margins</text>
  <text style="stroke:none;fill:black;font-family:sans-serif;font-size:13;" transform="matrix(1 0 0 1 776 1971)">Leading and trailing margins on the left and right side of each symbol</text>
  <text style="stroke:none;fill:black;font-family:sans-serif;font-size:13;" transform="matrix(1 0 0 1 776 1989)">can be adjusted by modifying the x-location of the margin guidelines.</text>
  <text style="stroke:none;fill:black;font-family:sans-serif;font-size:13;" transform="matrix(1 0 0 1 776 2007)">Modifications are automatically applied proportionally to all</text>
  <text style="stroke:none;fill:black;font-family:sans-serif;font-size:13;" transform="matrix(1 0 0 1 776 2025)">scales and weights.</text>
  <g transform="matrix(1 0 0 1 1289 1933)">
   <path d="M2.8418 1.86523L4.54102 3.57422Q5.18555 4.22852 5.90332 4.17969Q6.62109 4.13086 7.31445 3.35938L18.0078-8.42773L17.041-9.4043L6.42578 2.27539Q6.16211 2.57812 5.89355 2.61719Q5.625 2.65625 5.27344 2.30469L4.10156 1.14258Q3.75 0.791016 3.79395 0.522461Q3.83789 0.253906 4.14062-0.0195312L15.6152-10.8203L14.6387-11.7871L3.04688-0.898438Q2.30469-0.214844 2.25098 0.498047Q2.19727 1.21094 2.8418 1.86523ZM9.25781-16.3281Q8.94531-16.0254 8.90625-15.6348Q8.86719-15.2441 9.04297-14.9512Q9.21875-14.6777 9.55566-14.541Q9.89258-14.4043 10.3809-14.5215Q11.4746-14.7754 12.5977-14.7314Q13.7207-14.6875 14.7949-13.9844L14.209-12.5293Q13.9551-11.9043 14.0674-11.4404Q14.1797-10.9766 14.5801-10.5664L16.875-8.25195Q17.2363-7.88086 17.5781-7.82227Q17.9199-7.76367 18.3398-7.8418L19.4043-8.03711L20.0684-7.36328L20.0293-6.80664Q20-6.43555 20.1221-6.12305Q20.2441-5.81055 20.6055-5.44922L21.3672-4.70703Q21.7285-4.3457 22.1533-4.33105Q22.5781-4.31641 22.9297-4.66797L25.8398-7.58789Q26.1914-7.93945 26.1816-8.35449Q26.1719-8.76953 25.8105-9.13086L25.0391-9.89258Q24.6875-10.2539 24.3799-10.3857Q24.0723-10.5176 23.7109-10.4883L23.1348-10.4395L22.4902-11.0742L22.7344-12.1973Q22.832-12.6172 22.6953-12.9834Q22.5586-13.3496 22.1191-13.7891L19.9219-15.9766Q18.6719-17.2168 17.2607-17.8369Q15.8496-18.457 14.4189-18.4814Q12.9883-18.5059 11.665-17.959Q10.3418-17.4121 9.25781-16.3281ZM10.752-15.957Q11.6602-16.6211 12.7002-16.9043Q13.7402-17.1875 14.8047-17.085Q15.8691-16.9824 16.8701-16.5137Q17.8711-16.0449 18.7012-15.2051L21.1328-12.793Q21.3086-12.6172 21.3525-12.4512Q21.3965-12.2852 21.3379-12.0312L21.0156-10.5469L22.5195-9.0625L23.5059-9.12109Q23.6914-9.13086 23.7891-9.09668Q23.8867-9.0625 24.0332-8.91602L24.6094-8.33984L22.168-5.89844L21.5918-6.47461Q21.4453-6.62109 21.4062-6.71875Q21.3672-6.81641 21.377-7.01172L21.4453-7.98828L19.9512-9.47266L18.4277-9.21875Q18.1836-9.16992 18.042-9.2041Q17.9004-9.23828 17.7148-9.41406L15.7129-11.416Q15.5176-11.5918 15.4932-11.7529Q15.4688-11.9141 15.5859-12.1875L16.4648-14.2773Q15.293-15.3711 13.8281-15.791Q12.3633-16.2109 10.8398-15.7617Q10.7227-15.7324 10.6885-15.8057Q10.6543-15.8789 10.752-15.957Z"/>
  </g>
  <text style="stroke:none;fill:black;font-family:sans-serif;font-size:13;font-weight:bold;" transform="matrix(1 0 0 1 1289 1953)">Exporting</text>
  <text style="stroke:none;fill:black;font-family:sans-serif;font-size:13;" transform="matrix(1 0 0 1 1289 1971)">Symbols should be outlined when exporting to ensure the</text>
  <text style="stroke:none;fill:black;font-family:sans-serif;font-size:13;" transform="matrix(1 0 0 1 1289 1989)">design is preserved when submitting to Xcode.</text>
  <text id="template-version" style="stroke:none;fill:black;font-family:sans-serif;font-size:13;text-anchor:end;" transform="matrix(1 0 0 1 3036 1933)">Template v.3.0</text>
  <text style="stroke:none;fill:black;font-family:sans-serif;font-size:13;text-anchor:end;" transform="matrix(1 0 0 1 3036 1951)">Requires Xcode 13 or greater</text>
  <text id="descriptive-name" style="stroke:none;fill:black;font-family:sans-serif;font-size:13;text-anchor:end;" transform="matrix(1 0 0 1 3036 1969)">Generated from repeat.circle</text>
  <text style="stroke:none;fill:black;font-family:sans-serif;font-size:13;text-anchor:end;" transform="matrix(1 0 0 1 3036 1987)">Typeset at 100 points</text>
  <text style="stroke:none;fill:black;font-family:sans-serif;font-size:13;" transform="matrix(1 0 0 1 263 726)">Small</text>
  <text style="stroke:none;fill:black;font-family:sans-serif;font-size:13;" transform="matrix(1 0 0 1 263 1156)">Medium</text>
  <text style="stroke:none;fill:black;font-family:sans-serif;font-size:13;" transform="matrix(1 0 0 1 263 1586)">Large</text>
 </g>
 <g id="Guides">
  <g id="H-reference" style="fill:#27AAE1;stroke:none;" transform="matrix(1 0 0 1 339 696)">
   <path d="M0.993347 0L3.6377 0L29.3282-67.1326L30.0301-67.1326L30.0301-70.459L28.1227-70.459ZM11.6882-24.4797L46.9818-24.4797L46.2311-26.7288L12.4382-26.7288ZM55.1193 0L57.7637 0L30.6381-70.459L29.4327-70.459L29.4327-67.1326Z"/>
  </g>
  <line id="Baseline-S" style="fill:none;stroke:#27AAE1;opacity:1;stroke-width:0.5;" x1="263" x2="3036" y1="696" y2="696"/>
  <line id="Capline-S" style="fill:none;stroke:#27AAE1;opacity:1;stroke-width:0.5;" x1="263" x2="3036" y1="625.541" y2="625.541"/>
  <g id="H-reference" style="fill:#27AAE1;stroke:none;" transform="matrix(1 0 0 1 339 1126)">
   <path d="M0.993347 0L3.6377 0L29.3282-67.1326L30.0301-67.1326L30.0301-70.459L28.1227-70.459ZM11.6882-24.4797L46.9818-24.4797L46.2311-26.7288L12.4382-26.7288ZM55.1193 0L57.7637 0L30.6381-70.459L29.4327-70.459L29.4327-67.1326Z"/>
  </g>
  <line id="Baseline-M" style="fill:none;stroke:#27AAE1;opacity:1;stroke-width:0.5;" x1="263" x2="3036" y1="1126" y2="1126"/>
  <line id="Capline-M" style="fill:none;stroke:#27AAE1;opacity:1;stroke-width:0.5;" x1="263" x2="3036" y1="1055.54" y2="1055.54"/>
  <g id="H-reference" style="fill:#27AAE1;stroke:none;" transform="matrix(1 0 0 1 339 1556)">
   <path d="M0.993347 0L3.6377 0L29.3282-67.1326L30.0301-67.1326L30.0301-70.459L28.1227-70.459ZM11.6882-24.4797L46.9818-24.4797L46.2311-26.7288L12.4382-26.7288ZM55.1193 0L57.7637 0L30.6381-70.459L29.4327-70.459L29.4327-67.1326Z"/>
  </g>
  <line id="Baseline-L" style="fill:none;stroke:#27AAE1;opacity:1;stroke-width:0.5;" x1="263" x2="3036" y1="1556" y2="1556"/>
  <line id="Capline-L" style="fill:none;stroke:#27AAE1;opacity:1;stroke-width:0.5;" x1="263" x2="3036" y1="1485.54" y2="1485.54"/>
  <line id="left-margin-Regular-M" style="fill:none;stroke:#00AEEF;stroke-width:0.5;opacity:1.0;" x1="1391.32" x2="1391.32" y1="1030.79" y2="1150.12"/>
  <line id="right-margin-Regular-M" style="fill:none;stroke:#00AEEF;stroke-width:0.5;opacity:1.0;" x1="1508.37" x2="1508.37" y1="1030.79" y2="1150.12"/>
 </g>
 <g id="Symbols">
  <g id="Black-L" transform="matrix(1 0 0 1 2854.19 1556)">
   <path d="M79.1953 32.7252Q93.2356 32.7252 105.521 27.4303Q117.806 22.1354 127.174 12.7571Q136.542 3.37874 141.848-8.90649Q147.154-21.1917 147.154-35.2113Q147.154-49.2309 141.848-61.5161Q136.542-73.8013 127.164-83.1796Q117.785-92.558 105.5-97.8529Q93.2149-103.148 79.1746-103.148Q65.1563-103.148 52.8704-97.8529Q40.5846-92.558 31.2276-83.1796Q21.8707-73.8013 16.5647-61.5161Q11.2588-49.2309 11.2588-35.2113Q11.2588-21.1917 16.5647-8.90649Q21.8707 3.37874 31.238 12.7571Q40.6053 22.1354 52.8912 27.4303Q65.177 32.7252 79.1953 32.7252ZM79.1953 12.5777Q69.2941 12.5777 60.6256 8.86047Q51.9572 5.14327 45.4197-1.40458Q38.8822-7.95243 35.1644-16.6312Q31.4465-25.3101 31.4465-35.2113Q31.4465-45.1125 35.154-53.7913Q38.8615-62.4702 45.399-69.018Q51.9365-75.5659 60.6049-79.2831Q69.2734-83.0003 79.1746-83.0003Q89.0966-83.0003 97.7657-79.2831Q106.435-75.5659 112.982-69.018Q119.529-62.4702 123.257-53.7913Q126.986-45.1125 126.986-35.2113Q126.986-25.3101 123.268-16.6312Q119.551-7.95243 113.014-1.40458Q106.476 5.14327 97.7974 8.86047Q89.1186 12.5777 79.1953 12.5777ZM40.5955-40.9393L40.5955-37.0752Q40.5955-34.9283 42.1542-33.4286Q43.7129-31.929 45.8599-31.929Q48.086-31.929 49.5856-33.4286Q51.0853-34.9283 51.0853-37.0752L51.0853-40.4438Q51.0853-43.8869 53.2951-45.9664Q55.505-48.0459 59.1881-48.0459L81.0008-48.0459L81.0008-41.9053Q81.0008-37.5178 85.409-37.5178Q87.1175-37.5178 88.4951-38.5932L101.827-49.7738Q103.558-51.1463 103.529-53.0579Q103.5-54.9694 101.827-56.3627L88.4951-67.5433Q87.0591-68.7575 85.409-68.7575Q81.0008-68.7575 81.0008-64.3104L81.0008-58.454L59.9003-58.454Q51.211-58.454 45.9032-53.6735Q40.5955-48.8931 40.5955-40.9393ZM116.652-29.4743L116.652-33.3384Q116.652-35.5645 115.133-37.0246Q113.615-38.4847 111.389-38.4847Q109.222-38.4847 107.692-36.9954Q106.162-35.5061 106.162-33.3384L106.162-29.9699Q106.162-26.5267 103.953-24.4473Q101.744-22.3678 98.0604-22.3678L76.2464-22.3678L76.2464-28.4293Q76.2464-32.8167 71.8602-32.8167Q70.1322-32.8167 68.7728-31.7413L55.4198-20.5607Q53.7696-19.1298 53.7593-17.2371Q53.7489-15.3444 55.4198-13.9719L68.7728-2.79126Q70.1906-1.57701 71.8602-1.57701Q76.2464-1.57701 76.2464-6.02418L76.2464-11.9597L97.3469-11.9597Q106.058-11.9597 111.355-16.7693Q116.652-21.579 116.652-29.4743Z"/>
  </g>
  <g id="Heavy-L" transform="matrix(1 0 0 1 2558.42 1556)">
   <path d="M78.2511 31.7672Q92.088 31.7672 104.202 26.5464Q116.316 21.3256 125.559 12.0677Q134.802 2.8099 140.04-9.30402Q145.279-21.4179 145.279-35.2251Q145.279-49.0322 140.04-61.1461Q134.802-73.2601 125.544-82.5179Q116.286-91.7758 104.172-96.9966Q92.0582-102.217 78.2213-102.217Q64.4202-102.217 52.3033-96.9966Q40.1863-91.7758 30.9613-82.5179Q21.7362-73.2601 16.4975-61.1461Q11.2588-49.0322 11.2588-35.2251Q11.2588-21.4179 16.4975-9.30402Q21.7362 2.8099 30.9761 12.0677Q40.2161 21.3256 52.333 26.5464Q64.45 31.7672 78.2511 31.7672ZM78.2511 14.0252Q68.0447 14.0252 59.1149 10.2016Q50.1851 6.37791 43.4463-0.375708Q36.7076-7.12933 32.8809-16.074Q29.0543-25.0188 29.0543-35.2251Q29.0543-45.4314 32.8661-54.3761Q36.6778-63.3208 43.4166-70.0745Q50.1553-76.8281 59.0851-80.6517Q68.015-84.4754 78.2213-84.4754Q88.4574-84.4754 97.3902-80.6517Q106.323-76.8281 113.074-70.0745Q119.824-63.3208 123.666-54.3761Q127.507-45.4314 127.507-35.2251Q127.507-25.0188 123.684-16.074Q119.86-7.12933 113.121-0.375708Q106.383 6.37791 97.4379 10.2016Q88.4932 14.0252 78.2511 14.0252ZM39.5365-40.9123L39.5365-37.0743Q39.5365-35.0442 40.9994-33.6289Q42.4624-32.2136 44.4925-32.2136Q46.597-32.2136 48.0123-33.6289Q49.4276-35.0442 49.4276-37.0743L49.4276-40.4363Q49.4276-44.1346 51.7997-46.3742Q54.1718-48.6138 58.1054-48.6138L80.6082-48.6138L80.6082-42.0436Q80.6082-37.936 84.7456-37.936Q86.3382-37.936 87.6868-38.9601L101.224-50.2567Q102.853-51.5546 102.831-53.3574Q102.808-55.1601 101.224-56.4878L87.6868-67.7844Q86.2936-68.9336 84.7456-68.9336Q80.6082-68.9336 80.6082-64.7753L80.6082-58.4185L58.7748-58.4185Q50.1116-58.4185 44.824-53.6414Q39.5365-48.8643 39.5365-40.9123ZM116.095-29.469L116.095-33.307Q116.095-35.4115 114.672-36.7897Q113.249-38.1678 111.145-38.1678Q109.091-38.1678 107.647-36.7673Q106.203-35.3669 106.203-33.307L106.203-29.9451Q106.203-26.2468 103.834-24.0072Q101.465-21.7675 97.5317-21.7675L75.0228-21.7675L75.0228-28.2634Q75.0228-32.371 70.9212-32.371Q69.3048-32.371 67.9739-31.3469L54.4065-20.0502Q52.8585-18.7077 52.8436-16.9124Q52.8288-15.1171 54.4065-13.8192L67.9739-2.52252Q69.3495-1.37337 70.9212-1.37337Q75.0228-1.37337 75.0228-5.53166L75.0228-11.9628L96.8562-11.9628Q105.555-11.9628 110.825-16.7623Q116.095-21.5617 116.095-29.469Z"/>
  </g>
  <g id="Bold-L" transform="matrix(1 0 0 1 2262.89 1556)">
   <path d="M77.0653 30.566Q90.6516 30.566 102.549 25.4396Q114.447 20.3133 123.533 11.2089Q132.619 2.10448 137.771-9.79333Q142.923-21.6912 142.923-35.2405Q142.923-48.7898 137.771-60.6877Q132.619-72.5855 123.515-81.6899Q114.41-90.7942 102.512-95.9206Q90.6146-101.047 77.0283-101.047Q63.4932-101.047 51.5882-95.9206Q39.6833-90.7942 30.623-81.6899Q21.5627-72.5855 16.4108-60.6877Q11.2588-48.7898 11.2588-35.2405Q11.2588-21.6912 16.4108-9.79333Q21.5627 2.10448 30.6415 11.2089Q39.7203 20.3133 51.6252 25.4396Q63.5301 30.566 77.0653 30.566ZM77.0653 15.8201Q66.4831 15.8201 57.2278 11.8629Q47.9725 7.90583 40.9827 0.897553Q33.9929-6.11072 30.0287-15.3845Q26.0645-24.6583 26.0645-35.2405Q26.0645-45.8227 30.0102-55.0965Q33.9559-64.3703 40.9457-71.3786Q47.9355-78.3868 57.1908-82.3439Q66.4461-86.3011 77.0283-86.3011Q87.6474-86.3011 96.9099-82.3439Q106.172-78.3868 113.173-71.3786Q120.175-64.3703 124.157-55.0965Q128.14-45.8227 128.14-35.2405Q128.14-24.6583 124.183-15.3845Q120.226-6.11072 113.236 0.897553Q106.246 7.90583 96.9725 11.8629Q87.6986 15.8201 77.0653 15.8201ZM38.3949-40.8073L38.3949-37.056Q38.3949-35.1941 39.722-33.9033Q41.0491-32.6125 42.9111-32.6125Q44.8392-32.6125 46.13-33.9033Q47.4207-35.1941 47.4207-37.056L47.4207-40.3732Q47.4207-44.403 50.0017-46.8519Q52.5827-49.3009 56.8396-49.3009L80.1317-49.3009L80.1317-42.2069Q80.1317-38.4901 83.8855-38.4901Q85.3283-38.4901 86.6186-39.4424L100.36-50.8056Q101.854-51.9999 101.839-53.665Q101.825-55.3302 100.36-56.5615L86.6186-67.9247Q85.2991-68.9866 83.8855-68.9866Q80.1317-68.9866 80.1317-65.2263L80.1317-58.2321L57.4353-58.2321Q48.8588-58.2321 43.6269-53.4774Q38.3949-48.7226 38.3949-40.8073ZM115.192-29.535L115.192-33.2863Q115.192-35.2145 113.905-36.4721Q112.618-37.7298 110.69-37.7298Q108.805-37.7298 107.486-36.4575Q106.166-35.1853 106.166-33.2863L106.166-29.9692Q106.166-25.9394 103.592-23.4904Q101.019-21.0414 96.7617-21.0414L73.4554-21.0414L73.4554-28.0692Q73.4554-31.7861 69.7527-31.7861Q68.2872-31.7861 67.0054-30.8338L53.227-19.4706Q51.8134-18.247 51.7949-16.578Q51.7764-14.9089 53.227-13.7146L67.0054-2.35142Q68.3164-1.28949 69.7527-1.28949Q73.4554-1.28949 73.4554-5.04978L73.4554-12.1102L96.1517-12.1102Q104.779-12.1102 109.986-16.8796Q115.192-21.6489 115.192-29.535Z"/>
  </g>
  <g id="Semibold-L" transform="matrix(1 0 0 1 1966.99 1556)">
   <path d="M76.2478 29.7379Q89.6614 29.7379 101.41 24.6766Q113.159 19.6153 122.137 10.6168Q131.114 1.61818 136.206-10.1307Q141.299-21.8795 141.299-35.2511Q141.299-48.6228 136.206-60.3716Q131.114-72.1204 122.116-81.119Q113.117-90.1176 101.368-95.1789Q89.6194-100.24 76.2058-100.24Q62.854-100.24 51.0953-95.1789Q39.3365-90.1176 30.3898-81.119Q21.4432-72.1204 16.351-60.3716Q11.2588-48.6228 11.2588-35.2511Q11.2588-21.8795 16.351-10.1307Q21.4432 1.61818 30.4108 10.6168Q39.3785 19.6153 51.1372 24.6766Q62.896 29.7379 76.2478 29.7379ZM76.2478 17.0574Q65.4065 17.0574 55.9268 13.0083Q46.4471 8.95916 39.2843 1.77533Q32.1214-5.4085 28.0624-14.9092Q24.0033-24.4099 24.0033-35.2511Q24.0033-46.0924 28.0414-55.5931Q32.0795-65.0938 39.2423-72.2776Q46.4052-79.4614 55.8848-83.5105Q65.3645-87.5597 76.2058-87.5597Q87.089-87.5597 96.5787-83.5105Q106.068-79.4614 113.242-72.2776Q120.416-65.0938 124.496-55.5931Q128.576-46.0924 128.576-35.2511Q128.576-24.4099 124.527-14.9092Q120.478-5.4085 113.315 1.77533Q106.152 8.95916 96.6516 13.0083Q87.1509 17.0574 76.2478 17.0574ZM37.608-40.7349L37.608-37.0434Q37.608-35.2974 38.8414-34.0925Q40.0748-32.8876 41.8208-32.8876Q43.6274-32.8876 44.8323-34.0925Q46.0372-35.2974 46.0372-37.0434L46.0372-40.3297Q46.0372-44.588 48.7622-47.1813Q51.4872-49.7746 55.9669-49.7746L79.8031-49.7746L79.8031-42.3195Q79.8031-38.8721 83.2926-38.8721Q84.6321-38.8721 85.8822-39.7749L99.7642-51.1839Q101.166-52.3068 101.156-53.8772Q101.147-55.4475 99.7642-56.6124L85.8822-68.0214Q84.6135-69.0232 83.2926-69.0232Q79.8031-69.0232 79.8031-65.5373L79.8031-58.1036L56.5118-58.1036Q47.9951-58.1036 42.8016-53.3643Q37.608-48.625 37.608-40.7349ZM114.57-29.5805L114.57-33.272Q114.57-35.0786 113.377-36.2532Q112.184-37.4279 110.377-37.4279Q108.609-37.4279 107.375-36.2439Q106.141-35.06 106.141-33.272L106.141-29.9858Q106.141-25.7274 103.426-23.1341Q100.711-20.5408 96.2309-20.5408L72.3748-20.5408L72.3748-27.9353Q72.3748-31.3828 68.9472-31.3828Q67.5856-31.3828 66.3377-30.48L52.4138-19.071Q51.0929-17.9295 51.0719-16.3474Q51.0509-14.7654 52.4138-13.6425L66.3377-2.23347Q67.6042-1.23165 68.9472-1.23165Q72.3748-1.23165 72.3748-4.71758L72.3748-12.2118L95.6661-12.2118Q104.245-12.2118 109.407-16.9604Q114.57-21.709 114.57-29.5805Z"/>
  </g>
  <g id="Medium-L" transform="matrix(1 0 0 1 1670.9 1556)">
   <path d="M75.6279 29.11Q88.9106 29.11 100.546 24.0981Q112.182 19.0862 121.078 10.1678Q129.973 1.24944 135.02-10.3864Q140.067-22.0223 140.067-35.2592Q140.067-48.4961 135.02-60.1319Q129.973-71.7678 121.055-80.6862Q112.137-89.6045 100.501-94.6164Q88.8648-99.6283 75.5822-99.6283Q62.3695-99.6283 50.7215-94.6164Q39.0736-89.6045 30.213-80.6862Q21.3525-71.7678 16.3056-60.1319Q11.2588-48.4961 11.2588-35.2592Q11.2588-22.0223 16.3056-10.3864Q21.3525 1.24944 30.2359 10.1678Q39.1193 19.0862 50.7673 24.0981Q62.4152 29.11 75.6279 29.11ZM75.6279 17.9956Q64.5902 17.9956 54.9404 13.8767Q45.2905 9.75784 37.9965 2.4409Q30.7024-4.87605 26.5714-14.5488Q22.4405-24.2215 22.4405-35.2592Q22.4405-46.2969 26.5486-55.9696Q30.6567-65.6423 37.9507-72.9593Q45.2448-80.2762 54.8946-84.3951Q64.5445-88.514 75.5822-88.514Q86.6657-88.514 96.3276-84.3951Q105.989-80.2762 113.294-72.9593Q120.599-65.6423 124.753-55.9696Q128.907-46.2969 128.907-35.2592Q128.907-24.2215 124.788-14.5488Q120.669-4.87605 113.375 2.4409Q106.081 9.75784 96.4083 13.8767Q86.7356 17.9956 75.6279 17.9956ZM37.0113-40.68L37.0113-37.0338Q37.0113-35.3757 38.1737-34.2359Q39.336-33.0961 40.9942-33.0961Q42.7086-33.0961 43.8484-34.2359Q44.9882-35.3757 44.9882-37.0338L44.9882-40.2967Q44.9882-44.7283 47.8223-47.431Q50.6565-50.1338 55.3052-50.1338L79.554-50.1338L79.554-42.4049Q79.554-39.1617 82.843-39.1617Q84.1041-39.1617 85.3238-40.027L99.3123-51.4708Q100.643-52.5396 100.638-54.038Q100.633-55.5364 99.3123-56.6509L85.3238-68.0947Q84.0936-69.0509 82.843-69.0509Q79.554-69.0509 79.554-65.7731L79.554-58.0061L55.8116-58.0061Q47.3403-58.0061 42.1758-53.2785Q37.0113-48.5509 37.0113-40.68ZM114.098-29.615L114.098-33.2612Q114.098-34.9756 112.976-36.0873Q111.854-37.1989 110.14-37.1989Q108.46-37.1989 107.291-36.082Q106.121-34.9651 106.121-33.2612L106.121-29.9983Q106.121-25.5667 103.299-22.864Q100.477-20.1612 95.8284-20.1612L71.5555-20.1612L71.5555-27.8338Q71.5555-31.0771 68.3364-31.0771Q67.0537-31.0771 65.8315-30.2118L51.7972-18.768Q50.5466-17.6887 50.5237-16.1726Q50.5008-14.6566 51.7972-13.5878L65.8315-2.14403Q67.0642-1.1878 68.3364-1.1878Q71.5555-1.1878 71.5555-4.46569L71.5555-12.2889L95.2979-12.2889Q103.839-12.2889 108.969-17.0217Q114.098-21.7546 114.098-29.615Z"/>
  </g>
  <g id="Regular-L" transform="matrix(1 0 0 1 1374.99 1556)">
   <path d="M74.8194 28.2909Q87.9312 28.2909 99.4198 23.3434Q110.908 18.3959 119.697 9.58221Q128.485 0.768476 133.473-10.7201Q138.46-22.2086 138.46-35.2697Q138.46-48.3308 133.473-59.8193Q128.485-71.3079 119.671-80.1216Q110.858-88.9353 99.3691-93.8828Q87.8805-98.8303 74.7687-98.8303Q61.7374-98.8303 50.234-93.8828Q38.7306-88.9353 29.9824-80.1216Q21.2342-71.3079 16.2465-59.8193Q11.2588-48.3308 11.2588-35.2697Q11.2588-22.2086 16.2465-10.7201Q21.2342 0.768476 30.0077 9.58221Q38.7813 18.3959 50.2847 23.3434Q61.7881 28.2909 74.8194 28.2909ZM74.8194 19.2194Q63.5255 19.2194 53.6537 15.0095Q43.7819 10.7996 36.3167 3.30903Q28.8515-4.18154 24.6267-14.0786Q20.402-23.9757 20.402-35.2697Q20.402-46.5637 24.6014-56.4608Q28.8008-66.3579 36.266-73.8484Q43.7313-81.339 53.603-85.5489Q63.4748-89.7588 74.7687-89.7588Q86.1134-89.7588 96-85.5489Q105.887-81.339 113.362-73.8484Q120.838-66.3579 125.088-56.4608Q129.338-46.5637 129.338-35.2697Q129.338-23.9757 125.128-14.0786Q120.918-4.18154 113.453 3.30903Q105.988 10.7996 96.0909 15.0095Q86.1938 19.2194 74.8194 19.2194ZM36.2329-40.6084L36.2329-37.0213Q36.2329-35.4779 37.3027-34.423Q38.3724-33.3681 39.9159-33.3681Q41.5101-33.3681 42.565-34.423Q43.6199-35.4779 43.6199-37.0213L43.6199-40.2536Q43.6199-44.9113 46.5964-47.7568Q49.573-50.6023 54.4422-50.6023L79.2291-50.6023L79.2291-42.5163Q79.2291-39.5395 82.2566-39.5395Q83.4156-39.5395 84.5955-40.3558L98.723-51.845Q99.9624-52.8431 99.9624-54.2478Q99.9624-55.6524 98.723-56.7012L84.5955-68.1904Q83.4156-69.0871 82.2566-69.0871Q79.2291-69.0871 79.2291-66.0806L79.2291-57.879L54.8983-57.879Q46.4861-57.879 41.3595-53.1667Q36.2329-48.4544 36.2329-40.6084ZM113.483-29.66L113.483-33.2471Q113.483-34.8412 112.453-35.8708Q111.424-36.9003 109.83-36.9003Q108.265-36.9003 107.181-35.8708Q106.096-34.8412 106.096-33.2471L106.096-30.0148Q106.096-25.3571 103.134-22.5116Q100.173-19.6661 95.3035-19.6661L70.4868-19.6661L70.4868-27.7014Q70.4868-30.6782 67.5398-30.6782Q66.3598-30.6782 65.1711-29.8619L50.9929-18.3727Q49.834-17.3746 49.8086-15.9446Q49.7833-14.5147 50.9929-13.5165L65.1711-2.02737Q66.3598-1.13061 67.5398-1.13061Q70.4868-1.13061 70.4868-4.13714L70.4868-12.3894L94.8176-12.3894Q103.31-12.3894 108.397-17.1017Q113.483-21.814 113.483-29.66Z"/>
  </g>
  <g id="Light-L" transform="matrix(1 0 0 1 1079.2 1556)">
   <path d="M73.8959 27.3674Q86.8436 27.3674 98.1577 22.502Q109.472 17.6366 118.137 8.95629Q126.802 0.275949 131.708-11.0381Q136.614-22.3522 136.614-35.2697Q136.614-48.1872 131.708-59.5013Q126.802-70.8154 118.122-79.4957Q109.442-88.176 98.1275-93.0414Q86.8134-97.9069 73.8658-97.9069Q60.9986-97.9069 49.6594-93.0414Q38.3201-88.176 29.6951-79.4957Q21.07-70.8154 16.1644-59.5013Q11.2588-48.1872 11.2588-35.2697Q11.2588-22.3522 16.1644-11.0381Q21.07 0.275949 29.7102 8.95629Q38.3503 17.6366 49.6895 22.502Q61.0287 27.3674 73.8959 27.3674ZM73.8959 20.4712Q62.3557 20.4712 52.2479 16.1587Q42.1402 11.8462 34.4903 4.18122Q26.8403-3.48379 22.5027-13.6066Q18.1651-23.7295 18.1651-35.2697Q18.1651-46.8099 22.4876-56.9328Q26.8102-67.0556 34.4601-74.7206Q42.11-82.3856 52.2178-86.6981Q62.3255-91.0106 73.8658-91.0106Q85.4362-91.0106 95.5691-86.6981Q105.702-82.3856 113.342-74.7206Q120.982-67.0556 125.334-56.9328Q129.687-46.8099 129.687-35.2697Q129.687-23.7295 125.375-13.6066Q121.062-3.48379 113.412 4.18122Q105.762 11.8462 95.6394 16.1587Q85.5166 20.4712 73.8959 20.4712ZM36.5408-40.0748L36.5408-36.8982Q36.5408-35.6215 37.4053-34.7821Q38.2698-33.9427 39.5465-33.9427Q40.8534-33.9427 41.6928-34.7821Q42.5322-35.6215 42.5322-36.8982L42.5322-39.8637Q42.5322-44.8497 45.7037-47.9107Q48.8753-50.9717 54.0523-50.9717L78.9623-50.9717L78.9623-42.5779Q78.9623-40.1552 81.4152-40.1552Q82.4305-40.1552 83.4257-40.8689L97.3685-51.9066Q98.4643-52.761 98.4643-54.0528Q98.4643-55.3446 97.3685-56.2292L83.4257-67.2669Q82.4305-68.061 81.4152-68.061Q78.9623-68.061 78.9623-65.5881L78.9623-56.8324L54.3237-56.8324Q46.3219-56.8324 41.4313-52.2535Q36.5408-47.6745 36.5408-40.0748ZM111.492-30.173L111.492-33.3497Q111.492-34.6565 110.668-35.4808Q109.844-36.3052 108.537-36.3052Q107.28-36.3052 106.391-35.4808Q105.501-34.6565 105.501-33.3497L105.501-30.3842Q105.501-25.3982 102.355-22.3372Q99.2081-19.2762 94.0311-19.2762L69.0708-19.2762L69.0708-27.6399Q69.0708-30.0626 66.6984-30.0626Q65.7031-30.0626 64.6376-29.3488L50.6646-18.3112Q49.6493-17.4567 49.6342-16.1498Q49.6191-14.843 50.6646-13.9885L64.6376-2.95086Q65.7031-2.1567 66.6984-2.1567Q69.0708-2.1567 69.0708-4.62967L69.0708-13.4155L93.7094-13.4155Q101.792-13.4155 106.642-17.9944Q111.492-22.5733 111.492-30.173Z"/>
  </g>
  <g id="Thin-L" transform="matrix(1 0 0 1 783.716 1556)">
   <path d="M72.6746 26.1461Q85.405 26.1461 96.4884 21.3892Q107.572 16.6324 116.074 8.12846Q124.577-0.375458 129.374-11.4588Q134.171-22.5422 134.171-35.2697Q134.171-47.9972 129.374-59.0806Q124.577-70.1639 116.073-78.6679Q107.569-87.1718 96.4854-91.9286Q85.402-96.6855 72.6715-96.6855Q60.0215-96.6855 48.8994-91.9286Q37.7773-87.1718 29.3151-78.6679Q20.8529-70.1639 16.0558-59.0806Q11.2588-47.9972 11.2588-35.2697Q11.2588-22.5422 16.0558-11.4588Q20.8529-0.375458 29.3166 8.12846Q37.7803 16.6324 48.9024 21.3892Q60.0245 26.1461 72.6746 26.1461ZM72.6746 22.1269Q60.8086 22.1269 50.3887 17.6787Q39.9688 13.2305 32.0746 5.33475Q24.1804-2.56097 19.6935-12.9824Q15.2066-23.4038 15.2066-35.2697Q15.2066-47.1356 19.692-57.557Q24.1774-67.9784 32.0716-75.8742Q39.9658-83.7699 50.3857-88.2181Q60.8056-92.6663 72.6715-92.6663Q84.5405-92.6663 94.9991-88.2181Q105.458-83.7699 113.315-75.8742Q121.172-67.9784 125.66-57.557Q130.149-47.1356 130.149-35.2697Q130.149-23.4038 125.7-12.9824Q121.252-2.56097 113.358 5.33475Q105.464 13.2305 95.0423 17.6787Q84.6209 22.1269 72.6746 22.1269ZM36.9479-39.3692L36.9479-36.7354Q36.9479-35.8115 37.541-35.2571Q38.1341-34.7027 39.058-34.7027Q39.9848-34.7027 40.5393-35.2571Q41.0937-35.8115 41.0937-36.7354L41.0937-39.348Q41.0937-44.7683 44.5231-48.1143Q47.9524-51.4602 53.5366-51.4602L78.6095-51.4602L78.6095-42.6593Q78.6095-40.9694 80.3024-40.9694Q81.1277-40.9694 81.8786-41.5474L95.5772-51.988Q96.4829-52.6525 96.4829-53.7949Q96.4829-54.9374 95.5772-55.6049L81.8786-66.0455Q81.1277-66.7039 80.3024-66.7039Q78.6095-66.7039 78.6095-64.9367L78.6095-55.4482L53.5637-55.4482Q46.1048-55.4482 41.5263-51.0457Q36.9479-46.6432 36.9479-39.3692ZM108.86-30.8516L108.86-33.4854Q108.86-34.4122 108.307-34.9651Q107.754-35.518 106.827-35.518Q105.977-35.518 105.346-34.9651Q104.714-34.4122 104.714-33.4854L104.714-30.8727Q104.714-25.4524 101.323-22.1065Q97.9324-18.7605 92.3483-18.7605L67.198-18.7605L67.198-27.5584Q67.198-29.2483 65.5855-29.2483Q64.8346-29.2483 63.9319-28.6703L50.2303-18.2297Q49.405-17.5652 49.4035-16.4213Q49.402-15.2773 50.2303-14.6128L63.9319-4.17225Q64.8346-3.5138 65.5855-3.5138Q67.198-3.5138 67.198-5.28107L67.198-14.7726L92.2438-14.7726Q99.7832-14.7726 104.321-19.1751Q108.86-23.5776 108.86-30.8516Z"/>
  </g>
  <g id="Ultralight-L" transform="matrix(1 0 0 1 487.631 1556)">
   <path d="M72.049 25.5205Q84.6682 25.5205 95.6335 20.8192Q106.599 16.118 115.018 7.70445Q123.437-0.709105 128.178-11.6743Q132.92-22.6395 132.92-35.2697Q132.92-47.8999 128.178-58.8651Q123.437-69.8303 115.023-78.2439Q106.61-86.6574 95.6443-91.3586Q84.6791-96.0599 72.0598-96.0599Q59.521-96.0599 48.5101-91.3586Q37.4993-86.6574 29.1205-78.2439Q20.7417-69.8303 16.0002-58.8651Q11.2588-47.8999 11.2588-35.2697Q11.2588-22.6395 16.0002-11.6743Q20.7417-0.709105 29.115 7.70445Q37.4884 16.118 48.4992 20.8192Q59.5101 25.5205 72.049 25.5205ZM72.049 22.9749Q60.0162 22.9749 49.4364 18.4572Q38.8567 13.9395 30.8374 5.92558Q22.818-2.0883 18.2546-12.6626Q13.6913-23.2369 13.6913-35.2697Q13.6913-47.3025 18.2601-57.8768Q22.8289-68.4511 30.8482-76.465Q38.8676-84.4789 49.4473-88.9966Q60.0271-93.5143 72.0598-93.5143Q84.0817-93.5143 94.7071-88.9966Q105.333-84.4789 113.301-76.465Q121.269-68.4511 125.827-57.8768Q130.385-47.3025 130.385-35.2697Q130.385-23.2369 125.867-12.6626Q121.349-2.0883 113.33 5.92558Q105.311 13.9395 94.7365 18.4572Q84.1621 22.9749 72.049 22.9749ZM37.1564-39.0077L37.1564-36.652Q37.1564-35.9088 37.6105-35.5004Q38.0646-35.092 38.8077-35.092Q39.54-35.092 39.9484-35.5004Q40.3569-35.9088 40.3569-36.652L40.3569-39.0839Q40.3569-44.7266 43.9183-48.2185Q47.4798-51.7104 53.2724-51.7104L78.4288-51.7104L78.4288-42.701Q78.4288-41.3865 79.7324-41.3865Q80.4604-41.3865 81.0862-41.895L94.6596-52.0297Q95.4681-52.5969 95.4681-53.6629Q95.4681-54.7289 94.6596-55.2852L81.0862-65.4199Q80.4604-66.0088 79.7324-66.0088Q78.4288-66.0088 78.4288-64.603L78.4288-54.7391L53.1745-54.7391Q45.9935-54.7391 41.575-50.427Q37.1564-46.1149 37.1564-39.0077ZM107.511-31.1991L107.511-33.5549Q107.511-34.2871 107.097-34.701Q106.683-35.1149 105.951-35.1149Q105.31-35.1149 104.81-34.701Q104.311-34.2871 104.311-33.5549L104.311-31.1229Q104.311-25.4802 100.795-21.9883Q97.2791-18.4964 91.4864-18.4964L66.2388-18.4964L66.2388-27.5167Q66.2388-28.8313 65.0155-28.8313Q64.3897-28.8313 63.5704-28.3227L50.0079-18.188Q49.2799-17.6209 49.2853-16.5603Q49.2908-15.4997 50.0079-14.9325L63.5704-4.79784Q64.3897-4.2089 65.0155-4.2089Q66.2388-4.2089 66.2388-5.61472L66.2388-15.4677L91.493-15.4677Q98.7544-15.4677 103.133-19.7798Q107.511-24.092 107.511-31.1991Z"/>
  </g>
  <g id="Black-M" transform="matrix(1 0 0 1 2871.36 1126)">
   <path d="M62.0423 18.1161Q73.0725 18.1161 82.714 13.9613Q92.3555 9.80654 99.704 2.45531Q107.052-4.89592 111.21-14.5374Q115.367-24.1789 115.367-35.2035Q115.367-46.2282 111.21-55.8697Q107.052-65.5112 99.7012-72.8624Q92.35-80.2136 82.7085-84.3684Q73.067-88.5232 62.0368-88.5232Q51.0119-88.5232 41.3705-84.3684Q31.7292-80.2136 24.3833-72.8624Q17.0375-65.5112 12.8801-55.8697Q8.72266-46.2282 8.72266-35.2035Q8.72266-24.1789 12.8801-14.5374Q17.0375-4.89592 24.3861 2.45531Q31.7347 9.80654 41.376 13.9613Q51.0174 18.1161 62.0423 18.1161ZM62.0423 0.734266Q54.6003 0.734266 48.0771-2.06802Q41.554-4.87031 36.637-9.78999Q31.7201-14.7097 28.918-21.2356Q26.1159-27.7615 26.1159-35.2035Q26.1159-42.6456 28.9152-49.1715Q31.7146-55.6974 36.6315-60.6171Q41.5485-65.5368 48.0716-68.3391Q54.5948-71.1414 62.0368-71.1414Q69.4844-71.1414 76.0074-68.3391Q82.5304-65.5368 87.4502-60.6171Q92.3701-55.6974 95.175-49.1715Q97.9799-42.6456 97.9799-35.2035Q97.9799-27.7615 95.1776-21.2356Q92.3753-14.7097 87.4584-9.78999Q82.5414-4.87031 76.0155-2.06802Q69.4896 0.734266 62.0423 0.734266ZM32.4029-39.604L32.4029-36.6436Q32.4029-34.9159 33.665-33.7108Q34.927-32.5057 36.6547-32.5057Q38.445-32.5057 39.6501-33.7108Q40.8552-34.9159 40.8552-36.6436L40.8552-39.2229Q40.8552-41.7156 42.4542-43.2182Q44.0532-44.7209 46.7331-44.7209L63.0559-44.7209L63.0559-40.291Q63.0559-36.7264 66.626-36.7264Q68.0299-36.7264 69.097-37.5898L79.2246-46.0909Q80.6337-47.1989 80.6051-48.7581Q80.5766-50.3173 79.2246-51.4308L69.097-59.932Q67.9728-60.9147 66.626-60.9147Q63.0559-60.9147 63.0559-57.2933L63.0559-53.1111L47.2966-53.1111Q40.5979-53.1111 36.5004-49.4228Q32.4029-45.7344 32.4029-39.604ZM90.5841-30.8448L90.5841-33.8053Q90.5841-35.5955 89.3532-36.7694Q88.1223-37.9432 86.332-37.9432Q84.5985-37.9432 83.3652-36.7408Q82.1318-35.5384 82.1318-33.8053L82.1318-31.226Q82.1318-28.7333 80.5327-27.2306Q78.9335-25.728 76.2536-25.728L59.9311-25.728L59.9311-30.0953Q59.9311-33.6599 56.3662-33.6599Q54.9565-33.6599 53.8955-32.7965L43.7624-24.2953Q42.4156-23.1303 42.4129-21.5969Q42.4101-20.0635 43.7624-18.9555L53.8955-10.4543Q55.0136-9.47153 56.3662-9.47153Q59.9311-9.47153 59.9311-13.0929L59.9311-17.3377L75.6904-17.3377Q82.3943-17.3377 86.4892-21.0547Q90.5841-24.7716 90.5841-30.8448Z"/>
  </g>
  <g id="Heavy-M" transform="matrix(1 0 0 1 2575.48 1126)">
   <path d="M61.2045 17.2648Q72.0509 17.2648 81.541 13.1749Q91.0312 9.08498 98.2688 1.83921Q105.506-5.40657 109.606-14.8967Q113.705-24.3868 113.705-35.217Q113.705-46.0473 109.606-55.5374Q105.506-65.0275 98.2607-72.2733Q91.0149-79.519 81.5248-83.6089Q72.0347-87.6988 61.1882-87.6988Q50.3604-87.6988 40.8691-83.6089Q31.3778-79.519 24.1495-72.2733Q16.9211-65.0275 12.8219-55.5374Q8.72266-46.0473 8.72266-35.217Q8.72266-24.3868 12.8219-14.8967Q16.9211-5.40657 24.1576 1.83921Q31.394 9.08498 40.8853 13.1749Q50.3767 17.2648 61.2045 17.2648ZM61.2045 2.03385Q53.4869 2.03385 46.73-0.86303Q39.9731-3.75991 34.8765-8.86466Q29.7798-13.9694 26.8817-20.7344Q23.9836-27.4994 23.9836-35.217Q23.9836-42.9346 26.8736-49.6996Q29.7636-56.4646 34.8602-61.5694Q39.9568-66.6741 46.7137-69.571Q53.4706-72.4679 61.1882-72.4679Q68.922-72.4679 75.6802-69.571Q82.4383-66.6741 87.5418-61.5694Q92.6453-56.4646 95.5516-49.6996Q98.4578-42.9346 98.4578-35.217Q98.4578-27.4994 95.5609-20.7344Q92.664-13.9694 87.5674-8.86466Q82.4708-3.75991 75.7057-0.86303Q68.9407 2.03385 61.2045 2.03385ZM31.3392-39.6269L31.3392-36.654Q31.3392-35.016 32.5266-33.8735Q33.714-32.7309 35.3521-32.7309Q37.0499-32.7309 38.1925-33.8735Q39.3351-35.016 39.3351-36.654L39.3351-39.2515Q39.3351-41.9634 41.0747-43.6027Q42.8144-45.242 45.7107-45.242L62.6968-45.242L62.6968-40.4205Q62.6968-37.0784 66.0552-37.0784Q67.359-37.0784 68.4148-37.901L78.7602-46.5573Q80.0826-47.6056 80.0608-49.0688Q80.039-50.5321 78.7602-51.5966L68.4148-60.2529Q67.3153-61.1815 66.0552-61.1815Q62.6968-61.1815 62.6968-57.7933L62.6968-53.173L46.2494-53.173Q39.5383-53.173 35.4388-49.4756Q31.3392-45.7781 31.3392-39.6269ZM90.2231-30.7923L90.2231-33.7651Q90.2231-35.463 89.0668-36.5756Q87.9106-37.6883 86.2127-37.6883Q84.5609-37.6883 83.3941-36.5538Q82.2272-35.4194 82.2272-33.7651L82.2272-31.1677Q82.2272-28.4558 80.4888-26.8165Q78.7504-25.1772 75.854-25.1772L58.8655-25.1772L58.8655-29.9388Q58.8655-33.281 55.5258-33.281Q54.2082-33.281 53.1637-32.4583L42.8022-23.802Q41.542-22.7101 41.5339-21.2605Q41.5257-19.811 42.8022-18.7627L53.1637-10.1064Q54.2519-9.17781 55.5258-9.17781Q58.8655-9.17781 58.8655-12.566L58.8655-17.2461L75.3129-17.2461Q82.0427-17.2461 86.1329-20.9654Q90.2231-24.6847 90.2231-30.7923Z"/>
  </g>
  <g id="Bold-M" transform="matrix(1 0 0 1 2279.69 1126)">
   <path d="M60.2672 16.3124Q70.9082 16.3124 80.2289 12.2951Q89.5497 8.27781 96.6634 1.15Q103.777-5.9778 107.811-15.2986Q111.845-24.6193 111.845-35.2321Q111.845-45.8449 107.811-55.1656Q103.777-64.4864 96.6493-71.6142Q89.5215-78.742 80.2007-82.7593Q70.8799-86.7766 60.2389-86.7766Q49.6317-86.7766 40.3082-82.7593Q30.9846-78.742 23.8878-71.6142Q16.791-64.4864 12.7568-55.1656Q8.72266-45.8449 8.72266-35.2321Q8.72266-24.6193 12.7568-15.2986Q16.791-5.9778 23.902 1.15Q31.0129 8.27781 40.3364 12.2951Q49.6599 16.3124 60.2672 16.3124ZM60.2672 3.48763Q52.2414 3.48763 45.223 0.484927Q38.2046-2.51777 32.907-7.82954Q27.6093-13.1413 24.6039-20.1738Q21.5984-27.2063 21.5984-35.2321Q21.5984-43.2579 24.5897-50.2904Q27.5811-57.3229 32.8787-62.6347Q38.1764-67.9464 45.1948-70.9491Q52.2131-73.9518 60.2389-73.9518Q68.293-73.9518 75.3141-70.9491Q82.3352-67.9464 87.6443-62.6347Q92.9533-57.3229 95.9728-50.2904Q98.9924-43.2579 98.9924-35.2321Q98.9924-27.2063 95.9897-20.1738Q92.987-13.1413 87.6894-7.82954Q82.3917-2.51777 75.3592 0.484927Q68.3267 3.48763 60.2672 3.48763ZM30.1493-39.6524L30.1493-36.6657Q30.1493-35.128 31.2532-34.0554Q32.3571-32.9828 33.8949-32.9828Q35.4894-32.9828 36.562-34.0554Q37.6346-35.128 37.6346-36.6657L37.6346-39.2835Q37.6346-42.2405 39.5316-44.0327Q41.4285-45.8249 44.567-45.8249L62.295-45.8249L62.295-40.5654Q62.295-37.4721 65.4166-37.4721Q66.6084-37.4721 67.6516-38.2492L78.2406-47.079Q79.4662-48.0606 79.4519-49.4165Q79.4377-50.7723 78.2406-51.7821L67.6516-60.6119Q66.5798-61.4799 65.4166-61.4799Q62.295-61.4799 62.295-58.3526L62.295-53.2423L45.078-53.2423Q38.3531-53.2423 34.2512-49.5347Q30.1493-45.8271 30.1493-39.6524ZM89.8192-30.7335L89.8192-33.7202Q89.8192-35.3147 88.7465-36.3589Q87.6738-37.4031 86.0792-37.4031Q84.5188-37.4031 83.4264-36.3447Q82.334-35.2862 82.334-33.7202L82.334-31.1025Q82.334-28.1454 80.4398-26.3532Q78.5456-24.5611 75.4071-24.5611L57.6735-24.5611L57.6735-29.7638Q57.6735-32.8571 54.5858-32.8571Q53.3712-32.8571 52.3452-32.0799L41.7279-23.2501Q40.5647-22.24 40.5506-20.8843Q40.5364-19.5286 41.7279-18.547L52.3452-9.71724Q53.3998-8.84923 54.5858-8.84923Q57.6735-8.84923 57.6735-11.9766L57.6735-17.1437L74.8905-17.1437Q81.6493-17.1437 85.7343-20.8655Q89.8192-24.5874 89.8192-30.7335Z"/>
  </g>
  <g id="Semibold-M" transform="matrix(1 0 0 1 1983.62 1126)">
   <path d="M59.621 15.6559Q70.1203 15.6559 79.3244 11.6886Q88.5284 7.72135 95.5566 0.674869Q102.585-6.37161 106.574-15.5756Q110.564-24.7797 110.564-35.2425Q110.564-45.7053 106.574-54.9093Q102.585-64.1134 95.5384-71.1598Q88.4919-78.2063 79.2879-82.1736Q70.0838-86.1408 59.5845-86.1408Q49.1293-86.1408 39.9215-82.1736Q30.7136-78.2063 23.7075-71.1598Q16.7013-64.1134 12.712-54.9093Q8.72266-45.7053 8.72266-35.2425Q8.72266-24.7797 12.712-15.5756Q16.7013-6.37161 23.7257 0.674869Q30.7501 7.72135 39.958 11.6886Q49.1658 15.6559 59.621 15.6559ZM59.621 4.48985Q51.3827 4.48985 44.1841 1.4142Q36.9855-1.66145 31.5492-7.11594Q26.113-12.5704 23.0335-19.7873Q19.954-27.0042 19.954-35.2425Q19.954-43.4808 23.0153-50.6977Q26.0765-57.9145 31.5127-63.369Q36.9489-68.8235 44.1476-71.8992Q51.3462-74.9748 59.5845-74.9748Q67.8593-74.9748 75.0618-71.8992Q82.2642-68.8235 87.7149-63.369Q93.1655-57.9145 96.2633-50.6977Q99.361-43.4808 99.361-35.2425Q99.361-27.0042 96.2853-19.7873Q93.2097-12.5704 87.7735-7.11594Q82.3372-1.66145 75.1203 1.4142Q67.9035 4.48985 59.621 4.48985ZM29.329-39.67L29.329-36.6738Q29.329-35.2052 30.3754-34.1808Q31.4217-33.1565 32.8903-33.1565Q34.4136-33.1565 35.4379-34.1808Q36.4623-35.2052 36.4623-36.6738L36.4623-39.3056Q36.4623-42.4316 38.4677-44.3292Q40.4732-46.2268 43.7785-46.2268L62.0181-46.2268L62.0181-40.6653Q62.0181-37.7435 64.9763-37.7435Q66.091-37.7435 67.1255-38.4893L77.8825-47.4387Q79.0413-48.3743 79.0322-49.6561Q79.0231-50.938 77.8825-51.91L67.1255-60.8594Q66.0728-61.6857 64.9763-61.6857Q62.0181-61.6857 62.0181-58.7381L62.0181-53.29L44.2705-53.29Q37.536-53.29 33.4325-49.5754Q29.329-45.8608 29.329-39.67ZM89.5408-30.693L89.5408-33.6892Q89.5408-35.2125 88.5257-36.2095Q87.5105-37.2065 85.9872-37.2065Q84.4897-37.2065 83.4487-36.2005Q82.4076-35.1944 82.4076-33.6892L82.4076-31.0575Q82.4076-27.9314 80.406-26.0339Q78.4043-24.1363 75.099-24.1363L56.8518-24.1363L56.8518-29.6431Q56.8518-32.5649 53.9377-32.5649Q52.7942-32.5649 51.7809-31.8191L40.9874-22.8697Q39.8909-21.916 39.8727-20.6249Q39.8544-19.3339 40.9874-18.3983L51.7809-9.44894Q52.8124-8.62272 53.9377-8.62272Q56.8518-8.62272 56.8518-11.5703L56.8518-17.073L74.5994-17.073Q81.3781-17.073 85.4594-20.7967Q89.5408-24.5204 89.5408-30.693Z"/>
  </g>
  <g id="Medium-M" transform="matrix(1 0 0 1 1687.4 1126)">
   <path d="M59.1311 15.158Q69.523 15.158 78.6385 11.2287Q87.754 7.29942 94.7174 0.314603Q101.681-6.67021 105.636-15.7857Q109.591-24.9012 109.591-35.2504Q109.591-45.5995 105.636-54.715Q101.681-63.8305 94.696-70.8153Q87.7112-77.8002 78.5957-81.7295Q69.4802-85.6588 59.0883-85.6588Q48.7484-85.6588 39.6283-81.7295Q30.5081-77.8002 23.5707-70.8153Q16.6333-63.8305 12.678-54.715Q8.72266-45.5995 8.72266-35.2504Q8.72266-24.9012 12.678-15.7857Q16.6333-6.67021 23.5921 0.314603Q30.5509 7.29942 39.671 11.2287Q48.7912 15.158 59.1311 15.158ZM59.1311 5.24978Q50.7316 5.24978 43.3963 2.11881Q36.061-1.01215 30.5197-6.57486Q24.9784-12.1376 21.8428-19.4943Q18.7072-26.8509 18.7072-35.2504Q18.7072-43.6498 21.8214-51.0065Q24.9356-58.3632 30.4769-63.9259Q36.0183-69.4886 43.3536-72.6195Q50.6889-75.7505 59.0883-75.7505Q67.5305-75.7505 74.8704-72.6195Q82.2103-69.4886 87.7684-63.9259Q93.3265-58.3632 96.4835-51.0065Q99.6405-43.6498 99.6405-35.2504Q99.6405-26.8509 96.5095-19.4943Q93.3785-12.1376 87.8372-6.57486Q82.2959-1.01215 74.9392 2.11881Q67.5825 5.24978 59.1311 5.24978ZM28.7071-39.6834L28.7071-36.6799Q28.7071-35.2637 29.7097-34.276Q30.7124-33.2882 32.1286-33.2882Q33.5978-33.2882 34.5856-34.276Q35.5734-35.2637 35.5734-36.6799L35.5734-39.3223Q35.5734-42.5765 37.6611-44.554Q39.7488-46.5315 43.1807-46.5315L61.8081-46.5315L61.8081-40.741Q61.8081-37.9493 64.6425-37.9493Q65.6986-37.9493 66.7266-38.6713L77.6109-47.7114Q78.719-48.6121 78.7139-49.8378Q78.7088-51.0636 77.6109-52.007L66.7266-61.0471Q65.6883-61.8417 64.6425-61.8417Q61.8081-61.8417 61.8081-59.0305L61.8081-53.3262L43.6582-53.3262Q36.9164-53.3262 32.8117-49.6063Q28.7071-45.8864 28.7071-39.6834ZM89.3297-30.6623L89.3297-33.6658Q89.3297-35.135 88.3582-36.0963Q87.3867-37.0575 85.9175-37.0575Q84.4677-37.0575 83.4656-36.0911Q82.4634-35.1247 82.4634-33.6658L82.4634-31.0234Q82.4634-27.7692 80.3803-25.7917Q78.2973-23.8142 74.8654-23.8142L56.2287-23.8142L56.2287-29.5516Q56.2287-32.3433 53.4463-32.3433Q52.3567-32.3433 51.353-31.6213L40.4259-22.5812Q39.3801-21.6703 39.3587-20.4283Q39.3373-19.1863 40.4259-18.2856L51.353-9.24551Q52.3669-8.45096 53.4463-8.45096Q56.2287-8.45096 56.2287-11.2622L56.2287-17.0195L74.3786-17.0195Q81.1724-17.0195 85.2511-20.7445Q89.3297-24.4696 89.3297-30.6623Z"/>
  </g>
  <g id="Regular-M" transform="matrix(1 0 0 1 1391.32 1126)">
   <path d="M58.492 14.5087Q68.7438 14.5087 77.7439 10.6289Q86.7439 6.74907 93.6228-0.155309Q100.502-7.05969 104.413-16.0597Q108.324-25.0598 108.324-35.2606Q108.324-45.4615 104.413-54.4616Q100.502-63.4616 93.5973-70.366Q86.693-77.2704 77.6929-81.1502Q68.6929-85.03 58.441-85.03Q48.2515-85.03 39.2458-81.1502Q30.2401-77.2704 23.3923-70.366Q16.5446-63.4616 12.6336-54.4616Q8.72266-45.4615 8.72266-35.2606Q8.72266-25.0598 12.6336-16.0597Q16.5446-7.05969 23.4178-0.155309Q30.291 6.74907 39.2968 10.6289Q48.3025 14.5087 58.492 14.5087ZM58.492 6.24099Q49.8824 6.24099 42.3688 3.03788Q34.8553-0.165238 29.1769-5.86909Q23.4985-11.573 20.2897-19.112Q17.0809-26.6511 17.0809-35.2606Q17.0809-43.8702 20.2642-51.4093Q23.4476-58.9483 29.1259-64.6522Q34.8043-70.3561 42.3179-73.5592Q49.8315-76.7623 58.441-76.7623Q67.1016-76.7623 74.6208-73.5592Q82.1401-70.3561 87.8383-64.6522Q93.5364-58.9483 96.7707-51.4093Q100.005-43.8702 100.005-35.2606Q100.005-26.6511 96.8019-19.112Q93.5988-11.573 87.9204-5.86909Q82.242-0.165238 74.7029 3.03788Q67.1639 6.24099 58.492 6.24099ZM27.8958-39.7008L27.8958-36.6879Q27.8958-35.3401 28.8415-34.4Q29.7872-33.46 31.135-33.46Q32.5338-33.46 33.4739-34.4Q34.4139-35.3401 34.4139-36.6879L34.4139-39.3441Q34.4139-42.7655 36.6089-44.8472Q38.8039-46.9289 42.4008-46.9289L61.5342-46.9289L61.5342-40.8398Q61.5342-38.2178 64.2071-38.2178Q65.1869-38.2178 66.2062-38.9087L77.2567-48.0671Q78.2987-48.9223 78.2987-50.0748Q78.2987-51.2274 77.2567-52.1335L66.2062-61.2919Q65.1869-62.0451 64.2071-62.0451Q61.5342-62.0451 61.5342-59.4118L61.5342-53.3734L42.8595-53.3734Q36.1083-53.3734 32.002-49.6466Q27.8958-45.9198 27.8958-39.7008ZM89.0544-30.6222L89.0544-33.6351Q89.0544-35.0339 88.1398-35.9485Q87.2252-36.8631 85.8265-36.8631Q84.439-36.8631 83.4876-35.9485Q82.5362-35.0339 82.5362-33.6351L82.5362-30.9789Q82.5362-27.5576 80.3469-25.4758Q78.1576-23.3941 74.5607-23.3941L55.416-23.3941L55.416-29.4323Q55.416-32.0543 52.8054-32.0543Q51.786-32.0543 50.7949-31.3633L39.6935-22.2049Q38.7137-21.3498 38.6882-20.1718Q38.6628-18.9937 39.6935-18.1386L50.7949-8.98017Q51.786-8.22693 52.8054-8.22693Q55.416-8.22693 55.416-10.8603L55.416-16.9496L74.0907-16.9496Q80.9042-16.9496 84.9793-20.6764Q89.0544-24.4033 89.0544-30.6222Z"/>
  </g>
  <g id="Light-M" transform="matrix(1 0 0 1 1095.44 1126)">
   <path d="M57.664 13.6807Q67.7687 13.6807 76.6123 9.87453Q85.456 6.06831 92.2245-0.716478Q98.993-7.50127 102.83-16.3449Q106.668-25.1886 106.668-35.2606Q106.668-45.3327 102.83-54.1764Q98.993-63.02 92.2082-69.8048Q85.4234-76.5896 76.5798-80.3958Q67.7361-84.202 57.6315-84.202Q47.5892-84.202 38.7306-80.3958Q29.8721-76.5896 23.1348-69.8048Q16.3974-63.02 12.56-54.1764Q8.72266-45.3327 8.72266-35.2606Q8.72266-25.1886 12.56-16.3449Q16.3974-7.50127 23.151-0.716478Q29.9047 6.06831 38.7632 9.87453Q47.6217 13.6807 57.664 13.6807ZM57.664 7.36333Q48.8337 7.36333 41.1085 4.06822Q33.3833 0.773111 27.5394-5.08714Q21.6954-10.9474 18.3854-18.6888Q15.0755-26.4303 15.0755-35.2606Q15.0755-44.091 18.3692-51.8325Q21.6629-59.5739 27.5068-65.4342Q33.3508-71.2944 41.076-74.5895Q48.8011-77.8846 57.6315-77.8846Q66.4944-77.8846 74.2345-74.5895Q81.9745-71.2944 87.8199-65.4342Q93.6652-59.5739 96.9915-51.8325Q100.318-44.091 100.318-35.2606Q100.318-26.4303 97.0227-18.6888Q93.7275-10.9474 87.8836-5.08714Q82.0396 0.773111 74.2982 4.06822Q66.5567 7.36333 57.664 7.36333ZM28.1718-39.2224L28.1718-36.5775Q28.1718-35.4689 28.9335-34.722Q29.6952-33.9751 30.8039-33.9751Q31.9451-33.9751 32.6919-34.722Q33.4388-35.4689 33.4388-36.5775L33.4388-38.9945Q33.4388-42.7103 35.8086-44.9852Q38.1783-47.2601 42.0513-47.2601L61.295-47.2601L61.295-40.895Q61.295-38.7698 63.4527-38.7698Q64.3037-38.7698 65.1575-39.3687L76.0423-48.1223Q76.9556-48.8487 76.9556-49.9Q76.9556-50.9514 76.0423-51.7103L65.1575-60.4639Q64.3037-61.1252 63.4527-61.1252Q61.295-61.1252 61.295-58.9702L61.295-52.4351L42.3443-52.4351Q35.9611-52.4351 32.0664-48.8278Q28.1718-45.2206 28.1718-39.2224ZM87.2697-31.0822L87.2697-33.7271Q87.2697-34.8683 86.5391-35.5989Q85.8085-36.3295 84.6673-36.3295Q83.5559-36.3295 82.7793-35.5989Q82.0026-34.8683 82.0026-33.7271L82.0026-31.3101Q82.0026-27.5944 79.6477-25.3194Q77.2928-23.0445 73.4199-23.0445L54.1465-23.0445L54.1465-29.3771Q54.1465-31.5023 52.051-31.5023Q51.1972-31.5023 50.3165-30.9034L39.3991-22.1497Q38.5481-21.4234 38.5318-20.3557Q38.5156-19.2881 39.3991-18.5618L50.3165-9.80812Q51.1972-9.14688 52.051-9.14688Q54.1465-9.14688 54.1465-11.3019L54.1465-17.8695L73.0971-17.8695Q79.5427-17.8695 83.4062-21.4768Q87.2697-25.084 87.2697-31.0822Z"/>
  </g>
  <g id="Thin-M" transform="matrix(1 0 0 1 799.828 1126)">
   <path d="M56.569 12.5857Q66.479 12.5857 75.1158 8.87683Q83.7526 5.16794 90.3751-1.45867Q96.9976-8.08529 100.738-16.7221Q104.478-25.3589 104.478-35.2606Q104.478-45.1624 100.738-53.7992Q96.9976-62.436 90.371-69.0626Q83.7444-75.6892 75.1076-79.3981Q66.4707-83.107 56.5608-83.107Q46.7131-83.107 38.0493-79.3981Q29.3854-75.6892 22.7941-69.0626Q16.2027-62.436 12.4627-53.7992Q8.72266-45.1624 8.72266-35.2606Q8.72266-25.3589 12.4627-16.7221Q16.2027-8.08529 22.7982-1.45867Q29.3936 5.16794 38.0575 8.87683Q46.7214 12.5857 56.569 12.5857ZM56.569 8.84771Q47.4466 8.84771 39.4416 5.43093Q31.4366 2.01415 25.3736-4.05293Q19.3107-10.12 15.8668-18.1291Q12.423-26.1383 12.423-35.2606Q12.423-44.383 15.8627-52.3921Q19.3024-60.4013 25.3654-66.4684Q31.4284-72.5354 39.4334-75.9522Q47.4384-79.369 56.5608-79.369Q65.6914-79.369 73.7234-75.9522Q81.7555-72.5354 87.7955-66.4684Q93.8356-60.4013 97.2835-52.3921Q100.731-44.383 100.731-35.2606Q100.731-26.1383 97.3147-18.1291Q93.8979-10.12 87.8349-4.05293Q81.7719 2.01415 73.7628 5.43093Q65.7537 8.84771 56.569 8.84771ZM28.5368-38.5898L28.5368-36.4315Q28.5368-35.6392 29.0552-35.1478Q29.5736-34.6565 30.3658-34.6565Q31.1664-34.6565 31.6577-35.1478Q32.1491-35.6392 32.1491-36.4315L32.1491-38.5322Q32.1491-42.6373 34.75-45.1677Q37.351-47.6981 41.5889-47.6981L60.9786-47.6981L60.9786-40.968Q60.9786-39.4998 62.455-39.4998Q63.1357-39.4998 63.7705-39.9771L74.4363-48.1953Q75.1792-48.7514 75.1792-49.6689Q75.1792-50.5864 74.4363-51.1506L63.7705-59.3689Q63.1357-59.9085 62.455-59.9085Q60.9786-59.9085 60.9786-58.3862L60.9786-51.194L41.663-51.194Q35.7664-51.194 32.1516-47.745Q28.5368-44.2959 28.5368-38.5898ZM84.9093-31.6905L84.9093-33.8488Q84.9093-34.6493 84.422-35.1366Q83.9348-35.6238 83.1343-35.6238Q82.3878-35.6238 81.8424-35.1366Q81.297-34.6493 81.297-33.8488L81.297-31.7481Q81.297-27.643 78.723-25.1126Q76.1491-22.5822 71.9112-22.5822L52.4674-22.5822L52.4674-29.3041Q52.4674-30.7723 51.0533-30.7723Q50.4185-30.7723 49.6838-30.295L39.0097-22.0767Q38.3291-21.5207 38.325-20.5991Q38.3209-19.6775 39.0097-19.1214L49.6838-10.9032Q50.4185-10.3636 51.0533-10.3636Q52.4674-10.3636 52.4674-11.8859L52.4674-19.0862L71.7831-19.0862Q77.7419-19.0862 81.3256-22.5353Q84.9093-25.9844 84.9093-31.6905Z"/>
  </g>
  <g id="Ultralight-M" transform="matrix(1 0 0 1 503.679 1126)">
   <path d="M56.0081 12.0248Q65.8184 12.0248 74.3492 8.36581Q82.8801 4.70678 89.4278-1.83882Q95.9756-8.38442 99.6657-16.9153Q103.356-25.4462 103.356-35.2606Q103.356-45.0751 99.6657-53.606Q95.9756-62.1369 89.43-68.6825Q82.8844-75.2281 74.3535-78.8871Q65.8226-82.5461 56.0124-82.5461Q46.2644-82.5461 37.7003-78.8871Q29.1361-75.2281 22.6196-68.6825Q16.103-62.1369 12.4128-53.606Q8.72266-45.0751 8.72266-35.2606Q8.72266-25.4462 12.4128-16.9153Q16.103-8.38442 22.6175-1.83882Q29.1319 4.70678 37.6961 8.36581Q46.2602 12.0248 56.0081 12.0248ZM56.0081 9.60801Q46.7362 9.60801 38.5878 6.12891Q30.4395 2.64981 24.2644-3.52322Q18.0892-9.69625 14.5768-17.8425Q11.0645-25.9887 11.0645-35.2606Q11.0645-44.5326 14.579-52.6788Q18.0934-60.825 24.2686-66.9981Q30.4437-73.1711 38.5921-76.6502Q46.7404-80.1293 56.0124-80.1293Q65.2801-80.1293 73.4617-76.6502Q81.6433-73.1711 87.7831-66.9981Q93.9228-60.825 97.4331-52.6788Q100.943-44.5326 100.943-35.2606Q100.943-25.9887 97.4642-17.8425Q93.9851-9.69625 87.81-3.52322Q81.6348 2.64981 73.4886 6.12891Q65.3424 9.60801 56.0081 9.60801ZM28.7237-38.2657L28.7237-36.3567Q28.7237-35.7264 29.1175-35.366Q29.5112-35.0055 30.1415-35.0055Q30.7675-35.0055 31.128-35.366Q31.4885-35.7264 31.4885-36.3567L31.4885-38.2954Q31.4885-42.5999 34.2079-45.2612Q36.9272-47.9225 41.3521-47.9225L60.8166-47.9225L60.8166-41.0054Q60.8166-39.8737 61.944-39.8737Q62.5374-39.8737 63.06-40.2887L73.6137-48.2327Q74.2694-48.7015 74.2694-49.5505Q74.2694-50.3994 73.6137-50.864L63.06-58.808Q62.5374-59.2853 61.944-59.2853Q60.8166-59.2853 60.8166-58.0871L60.8166-50.5584L41.314-50.5584Q35.6667-50.5584 32.1952-47.1903Q28.7237-43.8223 28.7237-38.2657ZM83.7003-32.0021L83.7003-33.9111Q83.7003-34.5372 83.3377-34.8998Q82.9751-35.2624 82.349-35.2624Q81.7896-35.2624 81.3625-34.8998Q80.9355-34.5372 80.9355-33.9111L80.9355-31.9725Q80.9355-27.6679 78.2494-25.0067Q75.5633-22.3454 71.1384-22.3454L51.6074-22.3454L51.6074-29.2667Q51.6074-30.3984 50.5423-30.3984Q50.0197-30.3984 49.3597-29.9834L38.8103-22.0393Q38.2169-21.5706 38.2191-20.7237Q38.2212-19.8769 38.8103-19.4081L49.3597-11.464Q50.0197-10.9868 50.5423-10.9868Q51.6074-10.9868 51.6074-12.185L51.6074-19.7094L71.11-19.7094Q76.8196-19.7094 80.2599-23.0775Q83.7003-26.4456 83.7003-32.0021Z"/>
  </g>
  <g id="Black-S" transform="matrix(1 0 0 1 2884.57 696)">
   <path d="M48.8281 6.78711Q57.5195 6.78711 65.1123 3.51562Q72.7051 0.244141 78.4912-5.54199Q84.2773-11.3281 87.5488-18.9209Q90.8203-26.5137 90.8203-35.2051Q90.8203-43.8965 87.5488-51.4893Q84.2773-59.082 78.4912-64.8682Q72.7051-70.6543 65.1123-73.9258Q57.5195-77.1973 48.8281-77.1973Q40.1367-77.1973 32.5439-73.9258Q24.9512-70.6543 19.165-64.8682Q13.3789-59.082 10.1074-51.4893Q6.83594-43.8965 6.83594-35.2051Q6.83594-26.5137 10.1074-18.9209Q13.3789-11.3281 19.165-5.54199Q24.9512 0.244141 32.5439 3.51562Q40.1367 6.78711 48.8281 6.78711ZM48.8281-7.37305Q43.0664-7.37305 38.0127-9.5459Q32.959-11.7188 29.1504-15.5273Q25.3418-19.3359 23.1689-24.3896Q20.9961-29.4434 20.9961-35.2051Q20.9961-40.9668 23.1689-46.0205Q25.3418-51.0742 29.1504-54.8828Q32.959-58.6914 38.0127-60.8643Q43.0664-63.0371 48.8281-63.0371Q54.5898-63.0371 59.6436-60.8643Q64.6973-58.6914 68.5059-54.8828Q72.3145-51.0742 74.4873-46.0205Q76.6602-40.9668 76.6602-35.2051Q76.6602-29.4434 74.4873-24.3896Q72.3145-19.3359 68.5059-15.5273Q64.6973-11.7188 59.6436-9.5459Q54.5898-7.37305 48.8281-7.37305ZM25.7324-38.623L25.7324-36.3281Q25.7324-34.9609 26.7334-34.0088Q27.7344-33.0566 29.1016-33.0566Q30.5176-33.0566 31.4697-34.0088Q32.4219-34.9609 32.4219-36.3281L32.4219-38.3301Q32.4219-40.2344 33.6426-41.3818Q34.8633-42.5293 36.9141-42.5293L49.5117-42.5293L49.5117-39.1602Q49.5117-36.3281 52.3438-36.3281Q53.4668-36.3281 54.2969-37.0117L62.1582-43.6035Q63.2812-44.4824 63.2568-45.7275Q63.2324-46.9727 62.1582-47.8516L54.2969-54.4434Q53.418-55.2246 52.3438-55.2246Q49.5117-55.2246 49.5117-52.3438L49.5117-49.1699L37.3535-49.1699Q32.1289-49.1699 28.9307-46.2891Q25.7324-43.4082 25.7324-38.623ZM70.9961-31.8359L70.9961-34.1309Q70.9961-35.5469 70.0195-36.4746Q69.043-37.4023 67.627-37.4023Q66.2598-37.4023 65.2832-36.4502Q64.3066-35.498 64.3066-34.1309L64.3066-32.1289Q64.3066-30.2246 63.0859-29.0771Q61.8652-27.9297 59.8145-27.9297L47.2168-27.9297L47.2168-31.25Q47.2168-34.082 44.3848-34.082Q43.2617-34.082 42.4316-33.3984L34.5703-26.8066Q33.4961-25.8789 33.4961-24.6582Q33.4961-23.4375 34.5703-22.5586L42.4316-15.9668Q43.3105-15.1855 44.3848-15.1855Q47.2168-15.1855 47.2168-18.0664L47.2168-21.2891L59.375-21.2891Q64.5996-21.2891 67.7979-24.1943Q70.9961-27.0996 70.9961-31.8359Z"/>
  </g>
  <g id="Heavy-S" transform="matrix(1 0 0 1 2588.47 696)">
   <path d="M48.2173 6.16479Q56.7704 6.16479 64.2537 2.9394Q71.737-0.285985 77.4425-5.99721Q83.1479-11.7084 86.3791-19.1917Q89.6102-26.675 89.6102-35.2166Q89.6102-43.7582 86.3791-51.2415Q83.1479-58.7248 77.4367-64.436Q71.7255-70.1472 64.2422-73.3726Q56.7589-76.598 48.2058-76.598Q39.6642-76.598 32.1809-73.3726Q24.6976-70.1472 18.9979-64.436Q13.2982-58.7248 10.0671-51.2415Q6.83594-43.7582 6.83594-35.2166Q6.83594-26.675 10.0671-19.1917Q13.2982-11.7084 19.0037-5.99721Q24.7092-0.285985 32.1924 2.9394Q39.6757 6.16479 48.2173 6.16479ZM48.2173-6.40499Q42.2482-6.40499 37.0216-8.64699Q31.795-10.889 27.8539-14.8359Q23.9128-18.7828 21.6708-24.0151Q19.4288-29.2474 19.4288-35.2166Q19.4288-41.1858 21.665-46.4181Q23.9012-51.6504 27.8424-55.5973Q31.7835-59.5442 37.0101-61.7862Q42.2366-64.0282 48.2058-64.0282Q54.1865-64.0282 59.4131-61.7862Q64.6396-59.5442 68.5865-55.5973Q72.5334-51.6504 74.7812-46.4181Q77.0289-41.1858 77.0289-35.2166Q77.0289-29.2474 74.7869-24.0151Q72.5449-18.7828 68.6038-14.8359Q64.6627-10.889 59.4304-8.64699Q54.198-6.40499 48.2173-6.40499ZM24.7874-38.7037L24.7874-36.3512Q24.7874-35.0301 25.7481-34.1067Q26.7087-33.1834 28.0298-33.1834Q29.3997-33.1834 30.323-34.1067Q31.2464-35.0301 31.2464-36.3512L31.2464-38.3992Q31.2464-40.4533 32.565-41.693Q33.8837-42.9327 36.0843-42.9327L49.2351-42.9327L49.2351-39.2639Q49.2351-36.5586 51.9519-36.5586Q53.0058-36.5586 53.8474-37.2192L61.9162-43.9953Q62.9816-44.8397 62.963-46.0157Q62.9443-47.1916 61.9162-48.0475L53.8474-54.8237Q52.9685-55.5703 51.9519-55.5703Q49.2351-55.5703 49.2351-52.8278L49.2351-49.3428L36.5238-49.3428Q31.2415-49.3428 28.0145-46.4389Q24.7874-43.535 24.7874-38.7037ZM70.9154-31.7322L70.9154-34.0848Q70.9154-35.4547 69.9792-36.3536Q69.043-37.2525 67.6731-37.2525Q66.3404-37.2525 65.3984-36.335Q64.4565-35.4174 64.4565-34.0848L64.4565-32.0367Q64.4565-29.9826 63.1378-28.7429Q61.8191-27.5033 59.6185-27.5033L46.4677-27.5033L46.4677-31.1232Q46.4677-33.8285 43.7624-33.8285Q42.697-33.8285 41.8669-33.1679L33.7866-26.3918Q32.7701-25.5101 32.7643-24.347Q32.7585-23.184 33.7866-22.3396L41.8669-15.5634Q42.7343-14.8168 43.7624-14.8168Q46.4677-14.8168 46.4677-17.5593L46.4677-21.0931L59.1791-21.0931Q64.4728-21.0931 67.6941-24.0157Q70.9154-26.9383 70.9154-31.7322Z"/>
  </g>
  <g id="Bold-S" transform="matrix(1 0 0 1 2292.43 696)">
   <path d="M47.5342 5.46875Q55.9326 5.46875 63.2935 2.29492Q70.6543-0.878906 76.2695-6.50635Q81.8848-12.1338 85.0708-19.4946Q88.2568-26.8555 88.2568-35.2295Q88.2568-43.6035 85.0708-50.9644Q81.8848-58.3252 76.2573-63.9526Q70.6299-69.5801 63.269-72.7539Q55.9082-75.9277 47.5098-75.9277Q39.1357-75.9277 31.7749-72.7539Q24.4141-69.5801 18.811-63.9526Q13.208-58.3252 10.022-50.9644Q6.83594-43.6035 6.83594-35.2295Q6.83594-26.8555 10.022-19.4946Q13.208-12.1338 18.8232-6.50635Q24.4385-0.878906 31.7993 2.29492Q39.1602 5.46875 47.5342 5.46875ZM47.5342-5.32227Q41.333-5.32227 35.9131-7.6416Q30.4932-9.96094 26.4038-14.0625Q22.3145-18.1641 19.9951-23.5962Q17.6758-29.0283 17.6758-35.2295Q17.6758-41.4307 19.9829-46.8628Q22.29-52.2949 26.3794-56.3965Q30.4688-60.498 35.8887-62.8174Q41.3086-65.1367 47.5098-65.1367Q53.7354-65.1367 59.1553-62.8174Q64.5752-60.498 68.6768-56.3965Q72.7783-52.2949 75.1099-46.8628Q77.4414-41.4307 77.4414-35.2295Q77.4414-29.0283 75.1221-23.5962Q72.8027-18.1641 68.7134-14.0625Q64.624-9.96094 59.1919-7.6416Q53.7598-5.32227 47.5342-5.32227ZM23.7305-38.7939L23.7305-36.377Q23.7305-35.1074 24.646-34.2163Q25.5615-33.3252 26.8311-33.3252Q28.1494-33.3252 29.0405-34.2163Q29.9316-35.1074 29.9316-36.377L29.9316-38.4766Q29.9316-40.6982 31.3599-42.041Q32.7881-43.3838 35.1562-43.3838L48.9258-43.3838L48.9258-39.3799Q48.9258-36.8164 51.5137-36.8164Q52.4902-36.8164 53.3447-37.4512L61.6455-44.4336Q62.6465-45.2393 62.6343-46.3379Q62.6221-47.4365 61.6455-48.2666L53.3447-55.249Q52.4658-55.957 51.5137-55.957Q48.9258-55.957 48.9258-53.3691L48.9258-49.5361L35.5957-49.5361Q30.249-49.5361 26.9897-46.6064Q23.7305-43.6768 23.7305-38.7939ZM70.8252-31.6162L70.8252-34.0332Q70.8252-35.3516 69.9341-36.2183Q69.043-37.085 67.7246-37.085Q66.4307-37.085 65.5273-36.2061Q64.624-35.3271 64.624-34.0332L64.624-31.9336Q64.624-29.7119 63.1958-28.3691Q61.7676-27.0264 59.3994-27.0264L45.6299-27.0264L45.6299-30.9814Q45.6299-33.5449 43.0664-33.5449Q42.0654-33.5449 41.2354-32.9102L32.9102-25.9277Q31.958-25.0977 31.9458-23.999Q31.9336-22.9004 32.9102-22.0947L41.2354-15.1123Q42.0898-14.4043 43.0664-14.4043Q45.6299-14.4043 45.6299-16.9922L45.6299-20.874L58.96-20.874Q64.3311-20.874 67.5781-23.8159Q70.8252-26.7578 70.8252-31.6162Z"/>
  </g>
  <g id="Semibold-S" transform="matrix(1 0 0 1 1996.19 696)">
   <path d="M47.0632 4.98887Q55.355 4.98887 62.6314 1.85059Q69.9078-1.2877 75.4608-6.85737Q81.0139-12.4271 84.1688-19.7035Q87.3237-26.9799 87.3237-35.2384Q87.3237-43.4969 84.1688-50.7733Q81.0139-58.0497 75.4442-63.6194Q69.8745-69.1891 62.5981-72.3273Q55.3217-75.4656 47.0299-75.4656Q38.7714-75.4656 31.495-72.3273Q24.2186-69.1891 18.6822-63.6194Q13.1458-58.0497 9.99087-50.7733Q6.83594-43.4969 6.83594-35.2384Q6.83594-26.9799 9.99087-19.7035Q13.1458-12.4271 18.6988-6.85737Q24.2519-1.2877 31.5283 1.85059Q38.8047 4.98887 47.0632 4.98887ZM47.0632-4.57578Q40.7021-4.57578 35.1488-6.94844Q29.5956-9.32109 25.4041-13.5293Q21.2125-17.7375 18.8398-23.3074Q16.4672-28.8772 16.4672-35.2384Q16.4672-41.5995 18.8232-47.1694Q21.1792-52.7393 25.3708-56.9475Q29.5623-61.1557 35.1155-63.5283Q40.6688-65.901 47.0299-65.901Q53.4243-65.901 58.9775-63.5283Q64.5308-61.1557 68.739-56.9475Q72.9472-52.7393 75.3365-47.1694Q77.7258-41.5995 77.7258-35.2384Q77.7258-28.8772 75.3531-23.3074Q72.9805-17.7375 68.7889-13.5293Q64.5974-9.32109 59.0275-6.94844Q53.4576-4.57578 47.0632-4.57578ZM23.0018-38.8562L23.0018-36.3947Q23.0018-35.1607 23.8862-34.2918Q24.7706-33.4229 26.0046-33.4229Q27.2874-33.4229 28.1563-34.2918Q29.0252-35.1607 29.0252-36.3947L29.0252-38.5299Q29.0252-40.8671 30.529-42.281Q32.0327-43.6948 34.5164-43.6948L48.7125-43.6948L48.7125-39.4599Q48.7125-36.9941 51.2115-36.9941Q52.1348-36.9941 52.9981-37.6111L61.4589-44.7357Q62.4154-45.5147 62.4077-46.5601Q62.3999-47.6054 61.4589-48.4177L52.9981-55.5423Q52.1192-56.2236 51.2115-56.2236Q48.7125-56.2236 48.7125-53.7424L48.7125-49.6694L34.9559-49.6694Q29.5647-49.6694 26.2833-46.722Q23.0018-43.7745 23.0018-38.8562ZM70.763-31.5362L70.763-33.9977Q70.763-35.2805 69.903-36.125Q69.043-36.9694 67.7602-36.9694Q66.4929-36.9694 65.6162-36.1172Q64.7396-35.2649 64.7396-33.9977L64.7396-31.8625Q64.7396-29.5253 63.2358-28.1114Q61.732-26.6976 59.2483-26.6976L45.0522-26.6976L45.0522-30.8837Q45.0522-33.3494 42.5865-33.3494Q41.63-33.3494 40.7999-32.7324L32.3059-25.6078Q31.3981-24.8133 31.3815-23.7591Q31.3648-22.7049 32.3059-21.9259L40.7999-14.8013Q41.6455-14.1199 42.5865-14.1199Q45.0522-14.1199 45.0522-16.6012L45.0522-20.7229L58.8089-20.7229Q64.2333-20.7229 67.4981-23.6782Q70.763-26.6334 70.763-31.5362Z"/>
  </g>
  <g id="Medium-S" transform="matrix(1 0 0 1 1699.83 696)">
   <path d="M46.7061 4.625Q54.917 4.625 62.1294 1.51367Q69.3418-1.59766 74.8477-7.12354Q80.3535-12.6494 83.4849-19.8618Q86.6162-27.0742 86.6162-35.2451Q86.6162-43.416 83.4849-50.6284Q80.3535-57.8408 74.8276-63.3667Q69.3018-68.8926 62.0894-72.0039Q54.877-75.1152 46.666-75.1152Q38.4951-75.1152 31.2827-72.0039Q24.0703-68.8926 18.5845-63.3667Q13.0986-57.8408 9.96729-50.6284Q6.83594-43.416 6.83594-35.2451Q6.83594-27.0742 9.96729-19.8618Q13.0986-12.6494 18.6045-7.12354Q24.1104-1.59766 31.3228 1.51367Q38.5352 4.625 46.7061 4.625ZM46.7061-4.00977Q40.2236-4.00977 34.5693-6.42285Q28.915-8.83594 24.646-13.125Q20.377-17.4141 17.9639-23.0884Q15.5508-28.7627 15.5508-35.2451Q15.5508-41.7275 17.9438-47.4019Q20.3369-53.0762 24.606-57.3652Q28.875-61.6543 34.5293-64.0674Q40.1836-66.4805 46.666-66.4805Q53.1885-66.4805 58.8428-64.0674Q64.4971-61.6543 68.7861-57.3652Q73.0752-53.0762 75.5083-47.4019Q77.9414-41.7275 77.9414-35.2451Q77.9414-28.7627 75.5283-23.0884Q73.1152-17.4141 68.8462-13.125Q64.5771-8.83594 58.9028-6.42285Q53.2285-4.00977 46.7061-4.00977ZM22.4492-38.9033L22.4492-36.4082Q22.4492-35.2012 23.3101-34.3491Q24.1709-33.4971 25.3779-33.4971Q26.6338-33.4971 27.4858-34.3491Q28.3379-35.2012 28.3379-36.4082L28.3379-38.5703Q28.3379-40.9951 29.8989-42.4629Q31.46-43.9307 34.0312-43.9307L48.5508-43.9307L48.5508-39.5205Q48.5508-37.1289 50.9824-37.1289Q51.8652-37.1289 52.7354-37.7324L61.3174-44.9648Q62.2402-45.7236 62.2358-46.7285Q62.2314-47.7334 61.3174-48.5322L52.7354-55.7646Q51.8564-56.4258 50.9824-56.4258Q48.5508-56.4258 48.5508-54.0254L48.5508-49.7705L34.4707-49.7705Q29.0459-49.7705 25.7476-46.8096Q22.4492-43.8486 22.4492-38.9033ZM70.7158-31.4756L70.7158-33.9707Q70.7158-35.2266 69.8794-36.0542Q69.043-36.8818 67.7871-36.8818Q66.54-36.8818 65.6836-36.0498Q64.8271-35.2178 64.8271-33.9707L64.8271-31.8086Q64.8271-29.3838 63.2661-27.916Q61.7051-26.4482 59.1338-26.4482L44.6143-26.4482L44.6143-30.8096Q44.6143-33.2012 42.2227-33.2012Q41.2998-33.2012 40.4697-32.5977L31.8477-25.3652Q30.9736-24.5977 30.9536-23.5771Q30.9336-22.5566 31.8477-21.7979L40.4697-14.5654Q41.3086-13.9043 42.2227-13.9043Q44.6143-13.9043 44.6143-16.3047L44.6143-20.6084L58.6943-20.6084Q64.1592-20.6084 67.4375-23.5737Q70.7158-26.5391 70.7158-31.4756Z"/>
  </g>
  <g id="Regular-S" transform="matrix(1 0 0 1 1403.58 696)">
   <path d="M46.2402 4.15039Q54.3457 4.15039 61.4746 1.07422Q68.6035-2.00195 74.0479-7.4707Q79.4922-12.9395 82.5928-20.0684Q85.6934-27.1973 85.6934-35.2539Q85.6934-43.3105 82.5928-50.4395Q79.4922-57.5684 74.0234-63.0371Q68.5547-68.5059 61.4258-71.582Q54.2969-74.6582 46.1914-74.6582Q38.1348-74.6582 31.0059-71.582Q23.877-68.5059 18.457-63.0371Q13.0371-57.5684 9.93652-50.4395Q6.83594-43.3105 6.83594-35.2539Q6.83594-27.1973 9.93652-20.0684Q13.0371-12.9395 18.4814-7.4707Q23.9258-2.00195 31.0547 1.07422Q38.1836 4.15039 46.2402 4.15039ZM46.2402-3.27148Q39.5996-3.27148 33.8135-5.7373Q28.0273-8.20312 23.6572-12.5977Q19.2871-16.9922 16.8213-22.8027Q14.3555-28.6133 14.3555-35.2539Q14.3555-41.8945 16.7969-47.7051Q19.2383-53.5156 23.6084-57.9102Q27.9785-62.3047 33.7646-64.7705Q39.5508-67.2363 46.1914-67.2363Q52.8809-67.2363 58.667-64.7705Q64.4531-62.3047 68.8477-57.9102Q73.2422-53.5156 75.7324-47.7051Q78.2227-41.8945 78.2227-35.2539Q78.2227-28.6133 75.7568-22.8027Q73.291-16.9922 68.9209-12.5977Q64.5508-8.20312 58.7402-5.7373Q52.9297-3.27148 46.2402-3.27148ZM21.7285-38.9648L21.7285-36.4258Q21.7285-35.2539 22.5586-34.4238Q23.3887-33.5938 24.5605-33.5938Q25.7812-33.5938 26.6113-34.4238Q27.4414-35.2539 27.4414-36.4258L27.4414-38.623Q27.4414-41.1621 29.0771-42.7002Q30.7129-44.2383 33.3984-44.2383L48.3398-44.2383L48.3398-39.5996Q48.3398-37.3047 50.6836-37.3047Q51.5137-37.3047 52.3926-37.8906L61.1328-45.2637Q62.0117-45.9961 62.0117-46.9482Q62.0117-47.9004 61.1328-48.6816L52.3926-56.0547Q51.5137-56.6895 50.6836-56.6895Q48.3398-56.6895 48.3398-54.3945L48.3398-49.9023L33.8379-49.9023Q28.3691-49.9023 25.0488-46.9238Q21.7285-43.9453 21.7285-38.9648ZM70.6543-31.3965L70.6543-33.9355Q70.6543-35.1562 69.8486-35.9619Q69.043-36.7676 67.8223-36.7676Q66.6016-36.7676 65.7715-35.9619Q64.9414-35.1562 64.9414-33.9355L64.9414-31.7383Q64.9414-29.1992 63.3057-27.6611Q61.6699-26.123 58.9844-26.123L44.043-26.123L44.043-30.7129Q44.043-33.0078 41.748-33.0078Q40.8691-33.0078 40.0391-32.4219L31.25-25.0488Q30.4199-24.3164 30.3955-23.3398Q30.3711-22.3633 31.25-21.6309L40.0391-14.2578Q40.8691-13.623 41.748-13.623Q44.043-13.623 44.043-15.918L44.043-20.459L58.5449-20.459Q64.0625-20.459 67.3584-23.4375Q70.6543-26.416 70.6543-31.3965Z"/>
  </g>
  <g id="Light-S" transform="matrix(1 0 0 1 1107.6 696)">
   <path d="M45.5078 3.41797Q53.4831 3.41797 60.4736 0.406901Q67.4642-2.60417 72.8109-7.96712Q78.1576-13.3301 81.193-20.3206Q84.2285-27.3112 84.2285-35.2539Q84.2285-43.1966 81.193-50.1872Q78.1576-57.1777 72.7946-62.5407Q67.4316-67.9036 60.4411-70.9147Q53.4505-73.9258 45.4753-73.9258Q37.5488-73.9258 30.5501-70.9147Q23.5514-67.9036 18.2292-62.5407Q12.9069-57.1777 9.87142-50.1872Q6.83594-43.1966 6.83594-35.2539Q6.83594-27.3112 9.87142-20.3206Q12.9069-13.3301 18.2454-7.96712Q23.584-2.60417 30.5827 0.406901Q37.5814 3.41797 45.5078 3.41797ZM45.5078-2.27865Q38.6719-2.27865 32.6986-4.82585Q26.7253-7.37305 22.2087-11.9059Q17.6921-16.4388 15.1367-22.4284Q12.5814-28.418 12.5814-35.2539Q12.5814-42.0898 15.1204-48.0794Q17.6595-54.069 22.1761-58.6019Q26.6927-63.1348 32.666-65.682Q38.6393-68.2292 45.4753-68.2292Q52.3438-68.2292 58.3252-65.682Q64.3066-63.1348 68.8314-58.6019Q73.3561-54.069 75.9277-48.0794Q78.4993-42.0898 78.4993-35.2539Q78.4993-28.418 75.9521-22.4284Q73.4049-16.4388 68.8883-11.9059Q64.3717-7.37305 58.3822-4.82585Q52.3926-2.27865 45.5078-2.27865ZM21.9727-38.5417L21.9727-36.3281Q21.9727-35.3678 22.64-34.7087Q23.3073-34.0495 24.2676-34.0495Q25.2604-34.0495 25.9196-34.7087Q26.5788-35.3678 26.5788-36.3281L26.5788-38.3138Q26.5788-41.1133 28.3691-42.8223Q30.1595-44.5312 33.0892-44.5312L48.1283-44.5312L48.1283-39.6484Q48.1283-37.793 50.0163-37.793Q50.7324-37.793 51.4648-38.2975L60.0586-45.3125Q60.8236-45.931 60.8236-46.7936Q60.8236-47.6562 60.0586-48.3073L51.4648-55.3223Q50.7324-55.8757 50.0163-55.8757Q48.1283-55.8757 48.1283-54.0039L48.1283-49.0723L33.3822-49.0723Q28.2389-49.0723 25.1058-46.1995Q21.9727-43.3268 21.9727-38.5417ZM69.0755-31.8034L69.0755-34.0169Q69.0755-35.0098 68.4326-35.6527Q67.7897-36.2956 66.7969-36.2956Q65.8203-36.2956 65.1449-35.6527Q64.4694-35.0098 64.4694-34.0169L64.4694-32.0312Q64.4694-29.2318 62.6872-27.5228Q60.9049-25.8138 57.9753-25.8138L42.9199-25.8138L42.9199-30.6641Q42.9199-32.5195 41.0807-32.5195Q40.3483-32.5195 39.6159-32.015L30.9896-25Q30.2734-24.3815 30.2572-23.5026Q30.2409-22.6237 30.9896-22.0052L39.6159-14.9902Q40.3483-14.4368 41.0807-14.4368Q42.9199-14.4368 42.9199-16.3086L42.9199-21.2728L57.666-21.2728Q62.8581-21.2728 65.9668-24.1455Q69.0755-27.0182 69.0755-31.8034Z"/>
  </g>
  <g id="Thin-S" transform="matrix(1 0 0 1 811.863 696)">
   <path d="M44.5391 2.44928Q52.3422 2.44928 59.1498-0.47568Q65.9573-3.40064 71.1749-8.62368Q76.3924-13.8467 79.3418-20.6543Q82.2911-27.4619 82.2911-35.2539Q82.2911-43.0459 79.3418-49.8535Q76.3924-56.6611 71.1694-61.8841Q65.9463-67.1072 59.1387-70.0321Q52.3311-72.9571 44.5281-72.9571Q36.7739-72.9571 29.9474-70.0321Q23.1209-67.1072 17.9278-61.8841Q12.7347-56.6611 9.78531-49.8535Q6.83594-43.0459 6.83594-35.2539Q6.83594-27.4619 9.78531-20.6543Q12.7347-13.8467 17.9333-8.62368Q23.1319-3.40064 29.9584-0.47568Q36.7849 2.44928 44.5391 2.44928ZM44.5391-0.965537Q37.4449-0.965537 31.224-3.62037Q25.0032-6.2752 20.2928-10.9911Q15.5825-15.7069 12.9087-21.9333Q10.235-28.1597 10.235-35.2539Q10.235-42.3482 12.9032-48.5745Q15.5714-54.8009 20.2818-59.5168Q24.9921-64.2326 31.213-66.8874Q37.4338-69.5423 44.5281-69.5423Q51.6334-69.5423 57.8731-66.8874Q64.1129-64.2326 68.8099-59.5168Q73.5068-54.8009 76.1861-48.5745Q78.8653-42.3482 78.8653-35.2539Q78.8653-28.1597 76.2105-21.9333Q73.5556-15.7069 68.8453-10.9911Q64.135-6.2752 57.9086-3.62037Q51.6822-0.965537 44.5391-0.965537ZM22.2956-37.982L22.2956-36.199Q22.2956-35.5185 22.7476-35.0854Q23.1997-34.6522 23.8801-34.6522Q24.5716-34.6522 25.0047-35.0854Q25.4379-35.5185 25.4379-36.199L25.4379-37.9048Q25.4379-41.0487 27.4327-42.9837Q29.4276-44.9187 32.6802-44.9187L47.8484-44.9187L47.8484-39.713Q47.8484-38.4388 49.1337-38.4388Q49.6992-38.4388 50.2378-38.8357L58.6379-45.3771Q59.2521-45.8449 59.2521-46.5891Q59.2521-47.3334 58.6379-47.8122L50.2378-54.3536Q49.6992-54.7993 49.1337-54.7993Q47.8484-54.7993 47.8484-53.4873L47.8484-47.9744L32.7794-47.9744Q28.0667-47.9744 25.1811-45.2416Q22.2956-42.5088 22.2956-37.982ZM66.9875-32.3415L66.9875-34.1246Q66.9875-34.816 66.5598-35.2437Q66.1322-35.6713 65.4407-35.6713Q64.787-35.6713 64.3161-35.2437Q63.8451-34.816 63.8451-34.1246L63.8451-32.4187Q63.8451-29.2748 61.8692-27.3398Q59.8932-25.4048 56.6406-25.4048L41.4346-25.4048L41.4346-30.5995Q41.4346-31.8737 40.1981-31.8737Q39.6595-31.8737 39.0562-31.4768L30.6452-24.9354Q30.0797-24.4676 30.0742-23.7179Q30.0687-22.9681 30.6452-22.5003L39.0562-15.9589Q39.6595-15.5132 40.1981-15.5132Q41.4346-15.5132 41.4346-16.8252L41.4346-22.3491L56.5036-22.3491Q61.2651-22.3491 64.1263-25.0819Q66.9875-27.8147 66.9875-32.3415Z"/>
  </g>
  <g id="Ultralight-S" transform="matrix(1 0 0 1 515.649 696)">
   <path d="M44.043 1.95312Q51.7578 1.95312 58.4717-0.927734Q65.1855-3.80859 70.3369-8.95996Q75.4883-14.1113 78.3936-20.8252Q81.2988-27.5391 81.2988-35.2539Q81.2988-42.9688 78.3936-49.6826Q75.4883-56.3965 70.3369-61.5479Q65.1855-66.6992 58.4717-69.5801Q51.7578-72.4609 44.043-72.4609Q36.377-72.4609 29.6387-69.5801Q22.9004-66.6992 17.7734-61.5479Q12.6465-56.3965 9.74121-49.6826Q6.83594-42.9688 6.83594-35.2539Q6.83594-27.5391 9.74121-20.8252Q12.6465-14.1113 17.7734-8.95996Q22.9004-3.80859 29.6387-0.927734Q36.377 1.95312 44.043 1.95312ZM44.043-0.292969Q36.8164-0.292969 30.4688-3.00293Q24.1211-5.71289 19.3115-10.5225Q14.502-15.332 11.7676-21.6797Q9.0332-28.0273 9.0332-35.2539Q9.0332-42.4805 11.7676-48.8281Q14.502-55.1758 19.3115-59.9854Q24.1211-64.7949 30.4688-67.5049Q36.8164-70.2148 44.043-70.2148Q51.2695-70.2148 57.6416-67.5049Q64.0137-64.7949 68.7988-59.9854Q73.584-55.1758 76.3184-48.8281Q79.0527-42.4805 79.0527-35.2539Q79.0527-28.0273 76.3428-21.6797Q73.6328-15.332 68.8232-10.5225Q64.0137-5.71289 57.666-3.00293Q51.3184-0.292969 44.043-0.292969ZM22.4609-37.6953L22.4609-36.1328Q22.4609-35.5957 22.8027-35.2783Q23.1445-34.9609 23.6816-34.9609Q24.2188-34.9609 24.5361-35.2783Q24.8535-35.5957 24.8535-36.1328L24.8535-37.6953Q24.8535-41.0156 26.9531-43.0664Q29.0527-45.1172 32.4707-45.1172L47.7051-45.1172L47.7051-39.7461Q47.7051-38.7695 48.6816-38.7695Q49.1699-38.7695 49.6094-39.1113L57.9102-45.4102Q58.4473-45.8008 58.4473-46.4844Q58.4473-47.168 57.9102-47.5586L49.6094-53.8574Q49.1699-54.248 48.6816-54.248Q47.7051-54.248 47.7051-53.2227L47.7051-47.4121L32.4707-47.4121Q27.9785-47.4121 25.2197-44.751Q22.4609-42.0898 22.4609-37.6953ZM65.918-32.6172L65.918-34.1797Q65.918-34.7168 65.6006-35.0342Q65.2832-35.3516 64.7461-35.3516Q64.2578-35.3516 63.8916-35.0342Q63.5254-34.7168 63.5254-34.1797L63.5254-32.6172Q63.5254-29.2969 61.4502-27.2461Q59.375-25.1953 55.957-25.1953L40.6738-25.1953L40.6738-30.5664Q40.6738-31.543 39.7461-31.543Q39.3066-31.543 38.7695-31.2012L30.4688-24.9023Q29.9805-24.5117 29.9805-23.8281Q29.9805-23.1445 30.4688-22.7539L38.7695-16.4551Q39.3066-16.0645 39.7461-16.0645Q40.6738-16.0645 40.6738-17.0898L40.6738-22.9004L55.9082-22.9004Q60.4492-22.9004 63.1836-25.5615Q65.918-28.2227 65.918-32.6172Z"/>
  </g>
 </g>
</svg>
