<?xml version="1.0" encoding="UTF-8"?>
<!--Generator: Apple Native CoreSVG 175-->
<!DOCTYPE svg
PUBLIC "-//W3C//DTD SVG 1.1//EN"
       "http://www.w3.org/Graphics/SVG/1.1/DTD/svg11.dtd">
<svg version="1.1" xmlns="http://www.w3.org/2000/svg" xmlns:xlink="http://www.w3.org/1999/xlink" width="3300" height="2200">
 <!--glyph: "uni100061.medium", point size: 100.0, font version: "17.3d3e1", template writer version: "65.1"-->
 <g id="Notes">
  <rect height="2200" id="artboard" style="fill:white;opacity:1" width="3300" x="0" y="0"/>
  <line style="fill:none;stroke:black;opacity:1;stroke-width:0.5;" x1="263" x2="3036" y1="292" y2="292"/>
  <text style="stroke:none;fill:black;font-family:sans-serif;font-size:13;font-weight:bold;" transform="matrix(1 0 0 1 263 322)">Weight/Scale Variations</text>
  <text style="stroke:none;fill:black;font-family:sans-serif;font-size:13;text-anchor:middle;" transform="matrix(1 0 0 1 559.711 322)">Ultralight</text>
  <text style="stroke:none;fill:black;font-family:sans-serif;font-size:13;text-anchor:middle;" transform="matrix(1 0 0 1 856.422 322)">Thin</text>
  <text style="stroke:none;fill:black;font-family:sans-serif;font-size:13;text-anchor:middle;" transform="matrix(1 0 0 1 1153.13 322)">Light</text>
  <text style="stroke:none;fill:black;font-family:sans-serif;font-size:13;text-anchor:middle;" transform="matrix(1 0 0 1 1449.84 322)">Regular</text>
  <text style="stroke:none;fill:black;font-family:sans-serif;font-size:13;text-anchor:middle;" transform="matrix(1 0 0 1 1746.56 322)">Medium</text>
  <text style="stroke:none;fill:black;font-family:sans-serif;font-size:13;text-anchor:middle;" transform="matrix(1 0 0 1 2043.27 322)">Semibold</text>
  <text style="stroke:none;fill:black;font-family:sans-serif;font-size:13;text-anchor:middle;" transform="matrix(1 0 0 1 2339.98 322)">Bold</text>
  <text style="stroke:none;fill:black;font-family:sans-serif;font-size:13;text-anchor:middle;" transform="matrix(1 0 0 1 2636.69 322)">Heavy</text>
  <text style="stroke:none;fill:black;font-family:sans-serif;font-size:13;text-anchor:middle;" transform="matrix(1 0 0 1 2933.4 322)">Black</text>
  <line style="fill:none;stroke:black;opacity:1;stroke-width:0.5;" x1="263" x2="3036" y1="1903" y2="1903"/>
  <g transform="matrix(1 0 0 1 263 1933)">
   <path d="M9.24805 0.830078Q10.8691 0.830078 12.2949 0.214844Q13.7207-0.400391 14.8096-1.49414Q15.8984-2.58789 16.5186-4.01367Q17.1387-5.43945 17.1387-7.05078Q17.1387-8.66211 16.5186-10.0879Q15.8984-11.5137 14.8047-12.6074Q13.7109-13.7012 12.2852-14.3164Q10.8594-14.9316 9.23828-14.9316Q7.62695-14.9316 6.20117-14.3164Q4.77539-13.7012 3.69141-12.6074Q2.60742-11.5137 1.9873-10.0879Q1.36719-8.66211 1.36719-7.05078Q1.36719-5.43945 1.9873-4.01367Q2.60742-2.58789 3.69629-1.49414Q4.78516-0.400391 6.21094 0.214844Q7.63672 0.830078 9.24805 0.830078ZM9.24805-0.654297Q7.91992-0.654297 6.7627-1.14746Q5.60547-1.64062 4.73145-2.51953Q3.85742-3.39844 3.36426-4.56055Q2.87109-5.72266 2.87109-7.05078Q2.87109-8.37891 3.35938-9.54102Q3.84766-10.7031 4.72168-11.582Q5.5957-12.4609 6.75293-12.9541Q7.91016-13.4473 9.23828-13.4473Q10.5762-13.4473 11.7334-12.9541Q12.8906-12.4609 13.7695-11.582Q14.6484-10.7031 15.1465-9.54102Q15.6445-8.37891 15.6445-7.05078Q15.6445-5.72266 15.1514-4.56055Q14.6582-3.39844 13.7842-2.51953Q12.9102-1.64062 11.748-1.14746Q10.5859-0.654297 9.24805-0.654297ZM5.6543-7.05078Q5.6543-6.72852 5.85938-6.52832Q6.06445-6.32812 6.40625-6.32812L8.51562-6.32812L8.51562-4.20898Q8.51562-3.88672 8.71094-3.67676Q8.90625-3.4668 9.23828-3.4668Q9.56055-3.4668 9.77051-3.67676Q9.98047-3.88672 9.98047-4.20898L9.98047-6.32812L12.0898-6.32812Q12.4219-6.32812 12.627-6.52832Q12.832-6.72852 12.832-7.05078Q12.832-7.38281 12.627-7.58789Q12.4219-7.79297 12.0898-7.79297L9.98047-7.79297L9.98047-9.90234Q9.98047-10.2344 9.77051-10.4443Q9.56055-10.6543 9.23828-10.6543Q8.90625-10.6543 8.71094-10.4443Q8.51562-10.2344 8.51562-9.90234L8.51562-7.79297L6.40625-7.79297Q6.06445-7.79297 5.85938-7.58789Q5.6543-7.38281 5.6543-7.05078Z"/>
  </g>
  <g transform="matrix(1 0 0 1 281.867 1933)">
   <path d="M11.709 2.91016Q13.75 2.91016 15.5518 2.12891Q17.3535 1.34766 18.7305-0.0292969Q20.1074-1.40625 20.8887-3.20801Q21.6699-5.00977 21.6699-7.05078Q21.6699-9.0918 20.8887-10.8936Q20.1074-12.6953 18.7305-14.0723Q17.3535-15.4492 15.5469-16.2305Q13.7402-17.0117 11.6992-17.0117Q9.6582-17.0117 7.85645-16.2305Q6.05469-15.4492 4.68262-14.0723Q3.31055-12.6953 2.5293-10.8936Q1.74805-9.0918 1.74805-7.05078Q1.74805-5.00977 2.5293-3.20801Q3.31055-1.40625 4.6875-0.0292969Q6.06445 1.34766 7.86621 2.12891Q9.66797 2.91016 11.709 2.91016ZM11.709 1.25Q9.98047 1.25 8.47656 0.605469Q6.97266-0.0390625 5.83496-1.17676Q4.69727-2.31445 4.05762-3.81836Q3.41797-5.32227 3.41797-7.05078Q3.41797-8.7793 4.05762-10.2832Q4.69727-11.7871 5.83008-12.9297Q6.96289-14.0723 8.4668-14.7119Q9.9707-15.3516 11.6992-15.3516Q13.4277-15.3516 14.9316-14.7119Q16.4355-14.0723 17.5781-12.9297Q18.7207-11.7871 19.3652-10.2832Q20.0098-8.7793 20.0098-7.05078Q20.0098-5.32227 19.3701-3.81836Q18.7305-2.31445 17.5928-1.17676Q16.4551-0.0390625 14.9463 0.605469Q13.4375 1.25 11.709 1.25ZM7.17773-7.05078Q7.17773-6.69922 7.41211-6.47461Q7.64648-6.25 8.01758-6.25L10.8887-6.25L10.8887-3.36914Q10.8887-2.99805 11.1133-2.76855Q11.3379-2.53906 11.6895-2.53906Q12.0605-2.53906 12.29-2.76855Q12.5195-2.99805 12.5195-3.36914L12.5195-6.25L15.4004-6.25Q15.7715-6.25 16.001-6.47461Q16.2305-6.69922 16.2305-7.05078Q16.2305-7.42188 16.001-7.65137Q15.7715-7.88086 15.4004-7.88086L12.5195-7.88086L12.5195-10.752Q12.5195-11.1328 12.29-11.3623Q12.0605-11.5918 11.6895-11.5918Q11.3379-11.5918 11.1133-11.3574Q10.8887-11.123 10.8887-10.752L10.8887-7.88086L8.01758-7.88086Q7.63672-7.88086 7.40723-7.65137Q7.17773-7.42188 7.17773-7.05078Z"/>
  </g>
  <g transform="matrix(1 0 0 1 305.646 1933)">
   <path d="M14.9707 5.66406Q17.0605 5.66406 18.96 5.01465Q20.8594 4.36523 22.4512 3.19336Q24.043 2.02148 25.2197 0.429688Q26.3965-1.16211 27.0459-3.06641Q27.6953-4.9707 27.6953-7.05078Q27.6953-9.14062 27.0459-11.04Q26.3965-12.9395 25.2197-14.5312Q24.043-16.123 22.4512-17.2998Q20.8594-18.4766 18.9551-19.126Q17.0508-19.7754 14.9609-19.7754Q12.8711-19.7754 10.9717-19.126Q9.07227-18.4766 7.48535-17.2998Q5.89844-16.123 4.72168-14.5312Q3.54492-12.9395 2.90039-11.04Q2.25586-9.14062 2.25586-7.05078Q2.25586-4.9707 2.90527-3.06641Q3.55469-1.16211 4.72656 0.429688Q5.89844 2.02148 7.49023 3.19336Q9.08203 4.36523 10.9814 5.01465Q12.8809 5.66406 14.9707 5.66406ZM14.9707 3.84766Q13.1641 3.84766 11.5283 3.2959Q9.89258 2.74414 8.53516 1.74805Q7.17773 0.751953 6.17676-0.610352Q5.17578-1.97266 4.62891-3.6084Q4.08203-5.24414 4.08203-7.05078Q4.08203-8.86719 4.62891-10.5029Q5.17578-12.1387 6.17188-13.501Q7.16797-14.8633 8.52539-15.8594Q9.88281-16.8555 11.5186-17.4023Q13.1543-17.9492 14.9609-17.9492Q16.7773-17.9492 18.4131-17.4023Q20.0488-16.8555 21.4111-15.8594Q22.7734-14.8633 23.7695-13.501Q24.7656-12.1387 25.3174-10.5029Q25.8691-8.86719 25.8691-7.05078Q25.8789-5.24414 25.332-3.6084Q24.7852-1.97266 23.7842-0.610352Q22.7832 0.751953 21.4209 1.74805Q20.0586 2.74414 18.4229 3.2959Q16.7871 3.84766 14.9707 3.84766ZM9.19922-7.05078Q9.19922-6.66992 9.45801-6.4209Q9.7168-6.17188 10.1172-6.17188L14.0625-6.17188L14.0625-2.2168Q14.0625-1.81641 14.3115-1.55762Q14.5605-1.29883 14.9512-1.29883Q15.3516-1.29883 15.6104-1.55273Q15.8691-1.80664 15.8691-2.2168L15.8691-6.17188L19.8242-6.17188Q20.2246-6.17188 20.4785-6.4209Q20.7324-6.66992 20.7324-7.05078Q20.7324-7.46094 20.4785-7.71484Q20.2246-7.96875 19.8242-7.96875L15.8691-7.96875L15.8691-11.9141Q15.8691-12.3242 15.6104-12.583Q15.3516-12.8418 14.9512-12.8418Q14.5605-12.8418 14.3115-12.583Q14.0625-12.3242 14.0625-11.9141L14.0625-7.96875L10.1172-7.96875Q9.70703-7.96875 9.45312-7.71484Q9.19922-7.46094 9.19922-7.05078Z"/>
  </g>
  <text style="stroke:none;fill:black;font-family:sans-serif;font-size:13;font-weight:bold;" transform="matrix(1 0 0 1 263 1953)">Design Variations</text>
  <text style="stroke:none;fill:black;font-family:sans-serif;font-size:13;" transform="matrix(1 0 0 1 263 1971)">Symbols are supported in up to nine weights and three scales.</text>
  <text style="stroke:none;fill:black;font-family:sans-serif;font-size:13;" transform="matrix(1 0 0 1 263 1989)">For optimal layout with text and other symbols, vertically align</text>
  <text style="stroke:none;fill:black;font-family:sans-serif;font-size:13;" transform="matrix(1 0 0 1 263 2007)">symbols with the adjacent text.</text>
  <line style="fill:none;stroke:#00AEEF;stroke-width:0.5;opacity:1.0;" x1="776" x2="776" y1="1919" y2="1933"/>
  <g transform="matrix(1 0 0 1 776 1933)">
   <path d="M3.31055 0.15625Q3.70117 0.15625 3.91602-0.00976562Q4.13086-0.175781 4.26758-0.585938L5.52734-4.0332L11.2891-4.0332L12.5488-0.585938Q12.6855-0.175781 12.9004-0.00976562Q13.1152 0.15625 13.4961 0.15625Q13.8867 0.15625 14.1162-0.0585938Q14.3457-0.273438 14.3457-0.644531Q14.3457-0.869141 14.2383-1.17188L9.6582-13.3691Q9.48242-13.8184 9.17969-14.043Q8.87695-14.2676 8.4082-14.2676Q7.5-14.2676 7.17773-13.3789L2.59766-1.16211Q2.49023-0.859375 2.49023-0.634766Q2.49023-0.263672 2.70996-0.0537109Q2.92969 0.15625 3.31055 0.15625ZM6.00586-5.51758L8.37891-12.0898L8.42773-12.0898L10.8008-5.51758Z"/>
  </g>
  <line style="fill:none;stroke:#00AEEF;stroke-width:0.5;opacity:1.0;" x1="793.197" x2="793.197" y1="1919" y2="1933"/>
  <text style="stroke:none;fill:black;font-family:sans-serif;font-size:13;font-weight:bold;" transform="matrix(1 0 0 1 776 1953)">Margins</text>
  <text style="stroke:none;fill:black;font-family:sans-serif;font-size:13;" transform="matrix(1 0 0 1 776 1971)">Leading and trailing margins on the left and right side of each symbol</text>
  <text style="stroke:none;fill:black;font-family:sans-serif;font-size:13;" transform="matrix(1 0 0 1 776 1989)">can be adjusted by modifying the x-location of the margin guidelines.</text>
  <text style="stroke:none;fill:black;font-family:sans-serif;font-size:13;" transform="matrix(1 0 0 1 776 2007)">Modifications are automatically applied proportionally to all</text>
  <text style="stroke:none;fill:black;font-family:sans-serif;font-size:13;" transform="matrix(1 0 0 1 776 2025)">scales and weights.</text>
  <g transform="matrix(1 0 0 1 1289 1933)">
   <path d="M2.8418 1.86523L4.54102 3.57422Q5.18555 4.22852 5.90332 4.17969Q6.62109 4.13086 7.31445 3.35938L18.0078-8.42773L17.041-9.4043L6.42578 2.27539Q6.16211 2.57812 5.89355 2.61719Q5.625 2.65625 5.27344 2.30469L4.10156 1.14258Q3.75 0.791016 3.79395 0.522461Q3.83789 0.253906 4.14062-0.0195312L15.6152-10.8203L14.6387-11.7871L3.04688-0.898438Q2.30469-0.214844 2.25098 0.498047Q2.19727 1.21094 2.8418 1.86523ZM9.25781-16.3281Q8.94531-16.0254 8.90625-15.6348Q8.86719-15.2441 9.04297-14.9512Q9.21875-14.6777 9.55566-14.541Q9.89258-14.4043 10.3809-14.5215Q11.4746-14.7754 12.5977-14.7314Q13.7207-14.6875 14.7949-13.9844L14.209-12.5293Q13.9551-11.9043 14.0674-11.4404Q14.1797-10.9766 14.5801-10.5664L16.875-8.25195Q17.2363-7.88086 17.5781-7.82227Q17.9199-7.76367 18.3398-7.8418L19.4043-8.03711L20.0684-7.36328L20.0293-6.80664Q20-6.43555 20.1221-6.12305Q20.2441-5.81055 20.6055-5.44922L21.3672-4.70703Q21.7285-4.3457 22.1533-4.33105Q22.5781-4.31641 22.9297-4.66797L25.8398-7.58789Q26.1914-7.93945 26.1816-8.35449Q26.1719-8.76953 25.8105-9.13086L25.0391-9.89258Q24.6875-10.2539 24.3799-10.3857Q24.0723-10.5176 23.7109-10.4883L23.1348-10.4395L22.4902-11.0742L22.7344-12.1973Q22.832-12.6172 22.6953-12.9834Q22.5586-13.3496 22.1191-13.7891L19.9219-15.9766Q18.6719-17.2168 17.2607-17.8369Q15.8496-18.457 14.4189-18.4814Q12.9883-18.5059 11.665-17.959Q10.3418-17.4121 9.25781-16.3281ZM10.752-15.957Q11.6602-16.6211 12.7002-16.9043Q13.7402-17.1875 14.8047-17.085Q15.8691-16.9824 16.8701-16.5137Q17.8711-16.0449 18.7012-15.2051L21.1328-12.793Q21.3086-12.6172 21.3525-12.4512Q21.3965-12.2852 21.3379-12.0312L21.0156-10.5469L22.5195-9.0625L23.5059-9.12109Q23.6914-9.13086 23.7891-9.09668Q23.8867-9.0625 24.0332-8.91602L24.6094-8.33984L22.168-5.89844L21.5918-6.47461Q21.4453-6.62109 21.4062-6.71875Q21.3672-6.81641 21.377-7.01172L21.4453-7.98828L19.9512-9.47266L18.4277-9.21875Q18.1836-9.16992 18.042-9.2041Q17.9004-9.23828 17.7148-9.41406L15.7129-11.416Q15.5176-11.5918 15.4932-11.7529Q15.4688-11.9141 15.5859-12.1875L16.4648-14.2773Q15.293-15.3711 13.8281-15.791Q12.3633-16.2109 10.8398-15.7617Q10.7227-15.7324 10.6885-15.8057Q10.6543-15.8789 10.752-15.957Z"/>
  </g>
  <text style="stroke:none;fill:black;font-family:sans-serif;font-size:13;font-weight:bold;" transform="matrix(1 0 0 1 1289 1953)">Exporting</text>
  <text style="stroke:none;fill:black;font-family:sans-serif;font-size:13;" transform="matrix(1 0 0 1 1289 1971)">Symbols should be outlined when exporting to ensure the</text>
  <text style="stroke:none;fill:black;font-family:sans-serif;font-size:13;" transform="matrix(1 0 0 1 1289 1989)">design is preserved when submitting to Xcode.</text>
  <text id="template-version" style="stroke:none;fill:black;font-family:sans-serif;font-size:13;text-anchor:end;" transform="matrix(1 0 0 1 3036 1933)">Template v.3.0</text>
  <text style="stroke:none;fill:black;font-family:sans-serif;font-size:13;text-anchor:end;" transform="matrix(1 0 0 1 3036 1951)">Requires Xcode 13 or greater</text>
  <text id="descriptive-name" style="stroke:none;fill:black;font-family:sans-serif;font-size:13;text-anchor:end;" transform="matrix(1 0 0 1 3036 1969)">Generated from xmark.circle.fill</text>
  <text style="stroke:none;fill:black;font-family:sans-serif;font-size:13;text-anchor:end;" transform="matrix(1 0 0 1 3036 1987)">Typeset at 100 points</text>
  <text style="stroke:none;fill:black;font-family:sans-serif;font-size:13;" transform="matrix(1 0 0 1 263 726)">Small</text>
  <text style="stroke:none;fill:black;font-family:sans-serif;font-size:13;" transform="matrix(1 0 0 1 263 1156)">Medium</text>
  <text style="stroke:none;fill:black;font-family:sans-serif;font-size:13;" transform="matrix(1 0 0 1 263 1586)">Large</text>
 </g>
 <g id="Guides">
  <g id="H-reference" style="fill:#27AAE1;stroke:none;" transform="matrix(1 0 0 1 339 696)">
   <path d="M0.993347 0L3.6377 0L29.3282-67.1326L30.0301-67.1326L30.0301-70.459L28.1227-70.459ZM11.6882-24.4797L46.9818-24.4797L46.2311-26.7288L12.4382-26.7288ZM55.1193 0L57.7637 0L30.6381-70.459L29.4327-70.459L29.4327-67.1326Z"/>
  </g>
  <line id="Baseline-S" style="fill:none;stroke:#27AAE1;opacity:1;stroke-width:0.5;" x1="263" x2="3036" y1="696" y2="696"/>
  <line id="Capline-S" style="fill:none;stroke:#27AAE1;opacity:1;stroke-width:0.5;" x1="263" x2="3036" y1="625.541" y2="625.541"/>
  <g id="H-reference" style="fill:#27AAE1;stroke:none;" transform="matrix(1 0 0 1 339 1126)">
   <path d="M0.993347 0L3.6377 0L29.3282-67.1326L30.0301-67.1326L30.0301-70.459L28.1227-70.459ZM11.6882-24.4797L46.9818-24.4797L46.2311-26.7288L12.4382-26.7288ZM55.1193 0L57.7637 0L30.6381-70.459L29.4327-70.459L29.4327-67.1326Z"/>
  </g>
  <line id="Baseline-M" style="fill:none;stroke:#27AAE1;opacity:1;stroke-width:0.5;" x1="263" x2="3036" y1="1126" y2="1126"/>
  <line id="Capline-M" style="fill:none;stroke:#27AAE1;opacity:1;stroke-width:0.5;" x1="263" x2="3036" y1="1055.54" y2="1055.54"/>
  <g id="H-reference" style="fill:#27AAE1;stroke:none;" transform="matrix(1 0 0 1 339 1556)">
   <path d="M0.993347 0L3.6377 0L29.3282-67.1326L30.0301-67.1326L30.0301-70.459L28.1227-70.459ZM11.6882-24.4797L46.9818-24.4797L46.2311-26.7288L12.4382-26.7288ZM55.1193 0L57.7637 0L30.6381-70.459L29.4327-70.459L29.4327-67.1326Z"/>
  </g>
  <line id="Baseline-L" style="fill:none;stroke:#27AAE1;opacity:1;stroke-width:0.5;" x1="263" x2="3036" y1="1556" y2="1556"/>
  <line id="Capline-L" style="fill:none;stroke:#27AAE1;opacity:1;stroke-width:0.5;" x1="263" x2="3036" y1="1485.54" y2="1485.54"/>
  <line id="left-margin-Regular-M" style="fill:none;stroke:#00AEEF;stroke-width:0.5;opacity:1.0;" x1="1391.32" x2="1391.32" y1="1030.79" y2="1150.12"/>
  <line id="right-margin-Regular-M" style="fill:none;stroke:#00AEEF;stroke-width:0.5;opacity:1.0;" x1="1508.37" x2="1508.37" y1="1030.79" y2="1150.12"/>
 </g>
 <g id="Symbols">
  <g id="Black-L" transform="matrix(1 0 0 1 2854.19 1556)">
   <path d="M79.1953 32.7252Q93.2356 32.7252 105.521 27.4303Q117.806 22.1354 127.174 12.7571Q136.542 3.37874 141.848-8.90649Q147.154-21.1917 147.154-35.2113Q147.154-49.2309 141.848-61.5161Q136.542-73.8013 127.164-83.1796Q117.785-92.558 105.5-97.8529Q93.2149-103.148 79.1746-103.148Q65.1563-103.148 52.8704-97.8529Q40.5846-92.558 31.2276-83.1796Q21.8707-73.8013 16.5647-61.5161Q11.2588-49.2309 11.2588-35.2113Q11.2588-21.1917 16.5647-8.90649Q21.8707 3.37874 31.238 12.7571Q40.6053 22.1354 52.8912 27.4303Q65.177 32.7252 79.1953 32.7252ZM60.1462-7.79779Q56.5899-7.79779 54.1488-10.2486Q51.7077-12.6994 51.7077-16.3336Q51.7077-19.7146 54.2572-22.1473L67.1824-35.1309L54.2572-48.1145Q51.7077-50.5471 51.7077-53.9282Q51.7077-57.5623 54.1488-59.9918Q56.5899-62.4212 60.1462-62.4212Q63.9141-62.4212 66.4065-59.9509L79.1953-47.1815L92.0853-59.9716Q94.5764-62.464 98.3456-62.464Q101.923-62.464 104.364-60.0235Q106.805-57.583 106.805-53.9696Q106.805-50.5678 104.235-48.1352L91.3471-35.1309L104.214-22.168Q106.784-19.7561 106.784-16.3336Q106.784-12.6994 104.333-10.2486Q101.881-7.79779 98.3041-7.79779Q94.4727-7.79779 92.0024-10.2902L79.1953-23.0011L66.4687-10.2902Q63.9763-7.79779 60.1462-7.79779Z"/>
  </g>
  <g id="Heavy-L" transform="matrix(1 0 0 1 2558.42 1556)">
   <path d="M78.2511 31.7672Q92.088 31.7672 104.202 26.5464Q116.316 21.3256 125.559 12.0677Q134.802 2.8099 140.04-9.30402Q145.279-21.4179 145.279-35.2251Q145.279-49.0322 140.04-61.1461Q134.802-73.2601 125.544-82.5179Q116.286-91.7758 104.172-96.9966Q92.0582-102.217 78.2213-102.217Q64.4202-102.217 52.3033-96.9966Q40.1863-91.7758 30.9613-82.5179Q21.7362-73.2601 16.4975-61.1461Q11.2588-49.0322 11.2588-35.2251Q11.2588-21.4179 16.4975-9.30402Q21.7362 2.8099 30.9761 12.0677Q40.2161 21.3256 52.333 26.5464Q64.45 31.7672 78.2511 31.7672ZM58.701-8.1037Q55.5106-8.1037 53.3083-10.3179Q51.106-12.5321 51.106-15.7908Q51.106-18.8473 53.3917-21.0438L67.448-35.1447L53.3917-49.2455Q51.106-51.442 51.106-54.4985Q51.106-57.7573 53.3083-59.9387Q55.5106-62.1201 58.701-62.1201Q62.0341-62.1201 64.2812-59.9087L78.2511-45.9626L92.3311-59.9385Q94.5722-62.1856 97.9113-62.1856Q101.131-62.1856 103.334-59.9863Q105.536-57.787 105.536-54.5581Q105.536-51.4718 103.221-49.2753L89.1792-35.1447L103.191-21.0735Q105.506-18.9068 105.506-15.7908Q105.506-12.5321 103.289-10.3179Q101.072-8.1037 97.8518-8.1037Q94.4234-8.1037 92.212-10.3508L78.2511-24.2523L64.3705-10.3508Q62.1234-8.1037 58.701-8.1037Z"/>
  </g>
  <g id="Bold-L" transform="matrix(1 0 0 1 2262.89 1556)">
   <path d="M77.0653 30.566Q90.6516 30.566 102.549 25.4396Q114.447 20.3133 123.533 11.2089Q132.619 2.10448 137.771-9.79333Q142.923-21.6912 142.923-35.2405Q142.923-48.7898 137.771-60.6877Q132.619-72.5855 123.515-81.6899Q114.41-90.7942 102.512-95.9206Q90.6146-101.047 77.0283-101.047Q63.4932-101.047 51.5882-95.9206Q39.6833-90.7942 30.623-81.6899Q21.5627-72.5855 16.4108-60.6877Q11.2588-48.7898 11.2588-35.2405Q11.2588-21.6912 16.4108-9.79333Q21.5627 2.10448 30.6415 11.2089Q39.7203 20.3133 51.6252 25.4396Q63.5301 30.566 77.0653 30.566ZM56.9519-8.58117Q54.2256-8.58117 52.3306-10.4875Q50.4357-12.3937 50.4357-15.1721Q50.4357-17.8108 52.3919-19.7086L67.8142-35.1601L52.3919-50.6116Q50.4357-52.5093 50.4357-55.1481Q50.4357-57.9264 52.3306-59.7886Q54.2256-61.6508 56.9519-61.6508Q59.7439-61.6508 61.6851-59.7608L77.0653-44.4034L92.5629-59.7978Q94.4898-61.739 97.296-61.739Q100.059-61.739 101.954-59.8512Q103.849-57.9634 103.849-55.2221Q103.849-52.5463 101.856-50.6486L86.426-35.1601L101.819-19.7456Q103.812-17.8848 103.812-15.1721Q103.812-12.3937 101.899-10.4875Q99.9854-8.58117 97.222-8.58117Q94.3049-8.58117 92.4149-10.5224L77.0653-25.8506L61.796-10.5224Q59.8549-8.58117 56.9519-8.58117Z"/>
  </g>
  <g id="Semibold-L" transform="matrix(1 0 0 1 1966.99 1556)">
   <path d="M76.2478 29.7379Q89.6614 29.7379 101.41 24.6766Q113.159 19.6153 122.137 10.6168Q131.114 1.61818 136.206-10.1307Q141.299-21.8795 141.299-35.2511Q141.299-48.6228 136.206-60.3716Q131.114-72.1204 122.116-81.119Q113.117-90.1176 101.368-95.1789Q89.6194-100.24 76.2058-100.24Q62.854-100.24 51.0953-95.1789Q39.3365-90.1176 30.3898-81.119Q21.4432-72.1204 16.351-60.3716Q11.2588-48.6228 11.2588-35.2511Q11.2588-21.8795 16.351-10.1307Q21.4432 1.61818 30.4108 10.6168Q39.3785 19.6153 51.1372 24.6766Q62.896 29.7379 76.2478 29.7379ZM55.7461-8.91034Q53.3396-8.91034 51.6566-10.6044Q49.9737-12.2984 49.9737-14.7456Q49.9737-17.0963 51.7026-18.7881L68.0666-35.1707L51.7026-51.5533Q49.9737-53.2451 49.9737-55.5959Q49.9737-58.043 51.6566-59.6851Q53.3396-61.3273 55.7461-61.3273Q58.165-61.3273 59.8953-59.6589L76.2478-43.3285L92.7227-59.7008Q94.433-61.4311 96.8718-61.4311Q99.3203-61.4311 101.003-59.758Q102.686-58.085 102.686-55.6798Q102.686-53.2871 100.915-51.5953L84.5279-35.1707L100.873-18.8301Q102.644-17.1803 102.644-14.7456Q102.644-12.2984 100.94-10.6044Q99.2364-8.91034 96.7879-8.91034Q94.2232-8.91034 92.5548-10.6406L76.2478-26.9524L60.0212-10.6406Q58.291-8.91034 55.7461-8.91034Z"/>
  </g>
  <g id="Medium-L" transform="matrix(1 0 0 1 1670.9 1556)">
   <path d="M75.6279 29.11Q88.9106 29.11 100.546 24.0981Q112.182 19.0862 121.078 10.1678Q129.973 1.24944 135.02-10.3864Q140.067-22.0223 140.067-35.2592Q140.067-48.4961 135.02-60.1319Q129.973-71.7678 121.055-80.6862Q112.137-89.6045 100.501-94.6164Q88.8648-99.6283 75.5822-99.6283Q62.3695-99.6283 50.7215-94.6164Q39.0736-89.6045 30.213-80.6862Q21.3525-71.7678 16.3056-60.1319Q11.2588-48.4961 11.2588-35.2592Q11.2588-22.0223 16.3056-10.3864Q21.3525 1.24944 30.2359 10.1678Q39.1193 19.0862 50.7673 24.0981Q62.4152 29.11 75.6279 29.11ZM54.8318-9.15993Q52.6679-9.15993 51.1456-10.693Q49.6233-12.2261 49.6233-14.4221Q49.6233-16.5545 51.18-18.0902L68.258-35.1788L51.18-52.2674Q49.6233-53.803 49.6233-55.9354Q49.6233-58.1314 51.1456-59.6067Q52.6679-61.0819 54.8318-61.0819Q56.9679-61.0819 58.5382-59.5815L75.6279-42.5134L92.8438-59.6273Q94.39-61.1976 96.5502-61.1976Q98.7599-61.1976 100.282-59.6874Q101.804-58.1772 101.804-56.0269Q101.804-53.8487 100.202-52.3131L83.0887-35.1788L100.156-18.1359Q101.759-16.646 101.759-14.4221Q101.759-12.2261 100.214-10.693Q98.6684-9.15993 96.4587-9.15993Q94.1612-9.15993 92.6608-10.7302L75.6279-27.7879L58.6755-10.7302Q57.1051-9.15993 54.8318-9.15993Z"/>
  </g>
  <g id="Regular-L" transform="matrix(1 0 0 1 1374.99 1556)">
   <path d="M74.8194 28.2909Q87.9312 28.2909 99.4198 23.3434Q110.908 18.3959 119.697 9.58221Q128.485 0.768476 133.473-10.7201Q138.46-22.2086 138.46-35.2697Q138.46-48.3308 133.473-59.8193Q128.485-71.3079 119.671-80.1216Q110.858-88.9353 99.3691-93.8828Q87.8805-98.8303 74.7687-98.8303Q61.7374-98.8303 50.234-93.8828Q38.7306-88.9353 29.9824-80.1216Q21.2342-71.3079 16.2465-59.8193Q11.2588-48.3308 11.2588-35.2697Q11.2588-22.2086 16.2465-10.7201Q21.2342 0.768476 30.0077 9.58221Q38.7813 18.3959 50.2847 23.3434Q61.7881 28.2909 74.8194 28.2909ZM53.6393-9.48548Q51.7917-9.48548 50.479-10.8086Q49.1663-12.1318 49.1663-14.0003Q49.1663-15.8479 50.4983-17.1798L68.5077-35.1893L50.4983-53.1987Q49.1663-54.5307 49.1663-56.3783Q49.1663-58.2468 50.479-59.5044Q51.7917-60.762 53.6393-60.762Q55.4064-60.762 56.7681-59.4807L74.8194-41.4503L93.0019-59.5314Q94.3338-60.8931 96.1307-60.8931Q98.029-60.8931 99.3416-59.5953Q100.654-58.2974 100.654-56.4796Q100.654-54.5814 99.2717-53.2494L81.2116-35.1893L99.221-17.2305Q100.604-15.9492 100.604-14.0003Q100.604-12.1318 99.2656-10.8086Q97.9276-9.48548 96.0293-9.48548Q94.0804-9.48548 92.7991-10.8472L74.8194-28.8776L56.9201-10.8472Q55.5584-9.48548 53.6393-9.48548Z"/>
  </g>
  <g id="Light-L" transform="matrix(1 0 0 1 1079.2 1556)">
   <path d="M73.8959 27.3674Q86.8436 27.3674 98.1577 22.502Q109.472 17.6366 118.137 8.95629Q126.802 0.275949 131.708-11.0381Q136.614-22.3522 136.614-35.2697Q136.614-48.1872 131.708-59.5013Q126.802-70.8154 118.122-79.4957Q109.442-88.176 98.1275-93.0414Q86.8134-97.9069 73.8658-97.9069Q60.9986-97.9069 49.6594-93.0414Q38.3201-88.176 29.6951-79.4957Q21.07-70.8154 16.1644-59.5013Q11.2588-48.1872 11.2588-35.2697Q11.2588-22.3522 16.1644-11.0381Q21.07 0.275949 29.7102 8.95629Q38.3503 17.6366 49.6895 22.502Q61.0287 27.3674 73.8959 27.3674ZM52.6952-10.45Q51.2376-10.45 50.2122-11.4653Q49.1868-12.4807 49.1868-13.9182Q49.1868-15.3759 50.2725-16.4616L69.0002-35.1893L50.2725-53.917Q49.1868-55.0027 49.1868-56.4603Q49.1868-57.8979 50.2122-58.8579Q51.2376-59.818 52.6952-59.818Q54.0725-59.818 55.2084-58.7624L73.8959-40.0548L92.694-58.7926Q93.7797-59.9285 95.2072-59.9285Q96.695-59.9285 97.7204-58.9283Q98.7458-57.928 98.7458-56.5207Q98.7458-55.0329 97.6299-53.9472L78.8721-35.1893L97.5998-16.4917Q98.7156-15.4362 98.7156-13.9182Q98.7156-12.4807 97.6752-11.4653Q96.6347-10.45 95.1469-10.45Q93.6289-10.45 92.5734-11.586L73.8959-30.2936L55.2989-11.586Q54.1629-10.45 52.6952-10.45Z"/>
  </g>
  <g id="Thin-L" transform="matrix(1 0 0 1 783.716 1556)">
   <path d="M72.6746 26.1461Q85.405 26.1461 96.4884 21.3892Q107.572 16.6324 116.074 8.12846Q124.577-0.375458 129.374-11.4588Q134.171-22.5422 134.171-35.2697Q134.171-47.9972 129.374-59.0806Q124.577-70.1639 116.073-78.6679Q107.569-87.1718 96.4854-91.9286Q85.402-96.6855 72.6715-96.6855Q60.0215-96.6855 48.8994-91.9286Q37.7773-87.1718 29.3151-78.6679Q20.8529-70.1639 16.0558-59.0806Q11.2588-47.9972 11.2588-35.2697Q11.2588-22.5422 16.0558-11.4588Q20.8529-0.375458 29.3166 8.12846Q37.7803 16.6324 48.9024 21.3892Q60.0245 26.1461 72.6746 26.1461ZM51.4467-11.7257Q50.5048-11.7257 49.8594-12.3339Q49.214-12.9421 49.214-13.8097Q49.214-14.7516 49.974-15.5116L69.6517-35.1893L49.974-54.867Q49.214-55.627 49.214-56.5689Q49.214-57.4365 49.8594-58.003Q50.5048-58.5694 51.4467-58.5694Q52.3082-58.5694 53.1456-57.8125L72.6746-38.2092L92.2869-57.8155Q93.0469-58.6529 93.9858-58.6529Q94.9308-58.6529 95.5762-58.0462Q96.2216-57.4395 96.2216-56.5749Q96.2216-55.63 95.4586-54.87L75.7779-35.1893L95.4556-15.5146Q96.2186-14.7576 96.2186-13.8097Q96.2186-12.9421 95.5717-12.3339Q94.9248-11.7257 93.9798-11.7257Q93.0318-11.7257 92.2748-12.5631L72.6746-32.1664L53.1547-12.5631Q52.3173-11.7257 51.4467-11.7257Z"/>
  </g>
  <g id="Ultralight-L" transform="matrix(1 0 0 1 487.631 1556)">
   <path d="M72.049 25.5205Q84.6682 25.5205 95.6335 20.8192Q106.599 16.118 115.018 7.70445Q123.437-0.709105 128.178-11.6743Q132.92-22.6395 132.92-35.2697Q132.92-47.8999 128.178-58.8651Q123.437-69.8303 115.023-78.2439Q106.61-86.6574 95.6443-91.3586Q84.6791-96.0599 72.0598-96.0599Q59.521-96.0599 48.5101-91.3586Q37.4993-86.6574 29.1205-78.2439Q20.7417-69.8303 16.0002-58.8651Q11.2588-47.8999 11.2588-35.2697Q11.2588-22.6395 16.0002-11.6743Q20.7417-0.709105 29.115 7.70445Q37.4884 16.118 48.4992 20.8192Q59.5101 25.5205 72.049 25.5205ZM50.8072-12.3791Q50.1294-12.3791 49.6786-12.7788Q49.2279-13.1784 49.2279-13.754Q49.2279-14.4319 49.821-15.025L69.9853-35.1893L49.821-55.3535Q49.2279-55.9467 49.2279-56.6245Q49.2279-57.2001 49.6786-57.565Q50.1294-57.9299 50.8072-57.9299Q51.4046-57.9299 52.0891-57.3259L72.049-37.2638L92.0784-57.315Q92.6715-57.9995 93.3602-57.9995Q94.0272-57.9995 94.4779-57.5944Q94.9287-57.1893 94.9287-56.6028Q94.9287-55.9358 94.3464-55.3427L74.193-35.1893L94.3573-15.0141Q94.9396-14.4101 94.9396-13.754Q94.9396-13.1784 94.4943-12.7788Q94.0489-12.3791 93.382-12.3791Q92.726-12.3791 92.1219-13.0635L72.049-33.1256L52.0564-13.0635Q51.372-12.3791 50.8072-12.3791Z"/>
  </g>
  <g id="Black-M" transform="matrix(1 0 0 1 2871.36 1126)">
   <path d="M62.0423 18.1161Q73.0725 18.1161 82.714 13.9613Q92.3555 9.80654 99.704 2.45531Q107.052-4.89592 111.21-14.5374Q115.367-24.1789 115.367-35.2035Q115.367-46.2282 111.21-55.8697Q107.052-65.5112 99.7012-72.8624Q92.35-80.2136 82.7085-84.3684Q73.067-88.5232 62.0368-88.5232Q51.0119-88.5232 41.3705-84.3684Q31.7292-80.2136 24.3833-72.8624Q17.0375-65.5112 12.8801-55.8697Q8.72266-46.2282 8.72266-35.2035Q8.72266-24.1789 12.8801-14.5374Q17.0375-4.89592 24.3861 2.45531Q31.7347 9.80654 41.376 13.9613Q51.0174 18.1161 62.0423 18.1161ZM47.712-13.8448Q44.6951-13.8448 42.6376-15.9052Q40.5801-17.9656 40.5801-21.0454Q40.5801-23.891 42.7486-25.9453L51.8875-35.1412L42.7486-44.3372Q40.5801-46.3915 40.5801-49.2371Q40.5801-52.3169 42.6376-54.3719Q44.6951-56.427 47.712-56.427Q50.952-56.427 53.0631-54.3211L62.0423-45.3477L71.0894-54.3266Q73.2008-56.4377 76.4405-56.4377Q79.4629-56.4377 81.5204-54.38Q83.5779-52.3224 83.5779-49.2481Q83.5779-46.397 81.4039-44.3427L72.3166-35.1412L81.3984-25.9508Q83.5724-23.902 83.5724-21.0454Q83.5724-17.9656 81.5121-15.9052Q79.4519-13.8448 76.4295-13.8448Q73.1732-13.8448 71.0673-15.9559L62.0423-24.8722L53.0796-15.9559Q50.9685-13.8448 47.712-13.8448Z"/>
  </g>
  <g id="Heavy-M" transform="matrix(1 0 0 1 2575.48 1126)">
   <path d="M61.2045 17.2648Q72.0509 17.2648 81.541 13.1749Q91.0312 9.08498 98.2688 1.83921Q105.506-5.40657 109.606-14.8967Q113.705-24.3868 113.705-35.217Q113.705-46.0473 109.606-55.5374Q105.506-65.0275 98.2607-72.2733Q91.0149-79.519 81.5248-83.6089Q72.0347-87.6988 61.1882-87.6988Q50.3604-87.6988 40.8691-83.6089Q31.3778-79.519 24.1495-72.2733Q16.9211-65.0275 12.8219-55.5374Q8.72266-46.0473 8.72266-35.217Q8.72266-24.3868 12.8219-14.8967Q16.9211-5.40657 24.1576 1.83921Q31.394 9.08498 40.8853 13.1749Q50.3767 17.2648 61.2045 17.2648ZM46.3863-14.0548Q43.6911-14.0548 41.8406-15.9123Q39.99-17.7698 39.99-20.5224Q39.99-23.0866 41.9233-24.9327L52.1017-35.1547L41.9233-45.3767Q39.99-47.2228 39.99-49.7871Q39.99-52.5396 41.8406-54.3796Q43.6911-56.2197 46.3863-56.2197Q49.2372-56.2197 51.1294-54.3461L61.2045-44.2849L71.3581-54.3624Q73.2478-56.2546 76.1012-56.2546Q78.8126-56.2546 80.6632-54.4052Q82.5137-52.5559 82.5137-49.8196Q82.5137-47.2391 80.5641-45.3929L70.4132-35.1547L80.5479-24.949Q82.4975-23.1191 82.4975-20.5224Q82.4975-17.7698 80.6388-15.9123Q78.7801-14.0548 76.0687-14.0548Q73.1666-14.0548 71.2931-15.947L61.2045-25.9647L51.1781-15.947Q49.2859-14.0548 46.3863-14.0548Z"/>
  </g>
  <g id="Bold-M" transform="matrix(1 0 0 1 2279.69 1126)">
   <path d="M60.2672 16.3124Q70.9082 16.3124 80.2289 12.2951Q89.5497 8.27781 96.6634 1.15Q103.777-5.9778 107.811-15.2986Q111.845-24.6193 111.845-35.2321Q111.845-45.8449 107.811-55.1656Q103.777-64.4864 96.6493-71.6142Q89.5215-78.742 80.2007-82.7593Q70.8799-86.7766 60.2389-86.7766Q49.6317-86.7766 40.3082-82.7593Q30.9846-78.742 23.8878-71.6142Q16.791-64.4864 12.7568-55.1656Q8.72266-45.8449 8.72266-35.2321Q8.72266-24.6193 12.7568-15.2986Q16.791-5.9778 23.902 1.15Q31.0129 8.27781 40.3364 12.2951Q49.6599 16.3124 60.2672 16.3124ZM44.9033-14.2898Q42.568-14.2898 40.9489-15.9203Q39.3298-17.5508 39.3298-19.9373Q39.3298-22.1868 41.0002-23.8001L52.3413-35.1698L41.0002-46.5395Q39.3298-48.1528 39.3298-50.4023Q39.3298-52.7888 40.9489-54.3883Q42.568-55.9878 44.9033-55.9878Q47.3189-55.9878 48.9663-54.3742L60.2672-43.096L71.6586-54.4024Q73.3005-56.0498 75.7216-56.0498Q78.0851-56.0498 79.7042-54.4334Q81.3233-52.817 81.3233-50.4588Q81.3233-48.181 79.6247-46.5677L68.2839-35.1698L79.5965-23.8283Q81.2951-22.2433 81.2951-19.9373Q81.2951-17.5508 79.6618-15.9203Q78.0286-14.2898 75.6652-14.2898Q73.1593-14.2898 71.5457-15.9372L60.2672-27.1868L49.051-15.9372Q47.4036-14.2898 44.9033-14.2898Z"/>
  </g>
  <g id="Semibold-M" transform="matrix(1 0 0 1 1983.62 1126)">
   <path d="M59.621 15.6559Q70.1203 15.6559 79.3244 11.6886Q88.5284 7.72135 95.5566 0.674869Q102.585-6.37161 106.574-15.5756Q110.564-24.7797 110.564-35.2425Q110.564-45.7053 106.574-54.9093Q102.585-64.1134 95.5384-71.1598Q88.4919-78.2063 79.2879-82.1736Q70.0838-86.1408 59.5845-86.1408Q49.1293-86.1408 39.9215-82.1736Q30.7136-78.2063 23.7075-71.1598Q16.7013-64.1134 12.712-54.9093Q8.72266-45.7053 8.72266-35.2425Q8.72266-24.7797 12.712-15.5756Q16.7013-6.37161 23.7257 0.674869Q30.7501 7.72135 39.958 11.6886Q49.1658 15.6559 59.621 15.6559ZM43.8809-14.4518Q41.7938-14.4518 40.3342-15.9258Q38.8747-17.3998 38.8747-19.5339Q38.8747-21.5665 40.3638-23.0193L52.5065-35.1802L40.3638-47.3411Q38.8747-48.7938 38.8747-50.8265Q38.8747-52.9606 40.3342-54.3942Q41.7938-55.8279 43.8809-55.8279Q45.9965-55.8279 47.475-54.3935L59.621-42.2763L71.8658-54.43Q73.3367-55.9085 75.46-55.9085Q77.5836-55.9085 79.0431-54.4528Q80.5026-52.9971 80.5026-50.8995Q80.5026-48.8303 78.9771-47.3776L66.816-35.1802L78.9406-23.0558Q80.4661-21.6395 80.4661-19.5339Q80.4661-17.3998 78.9883-15.9258Q77.5105-14.4518 75.3869-14.4518Q73.1542-14.4518 71.7198-15.9304L59.621-28.0294L47.5845-15.9304Q46.106-14.4518 43.8809-14.4518Z"/>
  </g>
  <g id="Medium-M" transform="matrix(1 0 0 1 1687.4 1126)">
   <path d="M59.1311 15.158Q69.523 15.158 78.6385 11.2287Q87.754 7.29942 94.7174 0.314603Q101.681-6.67021 105.636-15.7857Q109.591-24.9012 109.591-35.2504Q109.591-45.5995 105.636-54.715Q101.681-63.8305 94.696-70.8153Q87.7112-77.8002 78.5957-81.7295Q69.4802-85.6588 59.0883-85.6588Q48.7484-85.6588 39.6283-81.7295Q30.5081-77.8002 23.5707-70.8153Q16.6333-63.8305 12.678-54.715Q8.72266-45.5995 8.72266-35.2504Q8.72266-24.9012 12.678-15.7857Q16.6333-6.67021 23.5921 0.314603Q30.5509 7.29942 39.671 11.2287Q48.7912 15.158 59.1311 15.158ZM43.1057-14.5747Q41.2067-14.5747 39.8682-15.93Q38.5296-17.2853 38.5296-19.2281Q38.5296-21.0962 39.8812-22.4272L52.6318-35.1881L39.8812-47.9489Q38.5296-49.2799 38.5296-51.1481Q38.5296-53.0908 39.8682-54.3987Q41.2067-55.7066 43.1057-55.7066Q44.9937-55.7066 46.3443-54.4081L59.1311-41.6549L72.0229-54.4509Q73.3642-55.8015 75.2615-55.8015Q77.2033-55.8015 78.5418-54.4675Q79.8804-53.1336 79.8804-51.2336Q79.8804-49.3227 78.486-47.9917L65.7029-35.1881L78.4432-22.47Q79.8376-21.1818 79.8376-19.2281Q79.8376-17.2853 78.4777-15.93Q77.1177-14.5747 75.176-14.5747Q73.1503-14.5747 71.8518-15.9252L59.1311-28.6682L46.4726-15.9252Q45.1221-14.5747 43.1057-14.5747Z"/>
  </g>
  <g id="Regular-M" transform="matrix(1 0 0 1 1391.32 1126)">
   <path d="M58.492 14.5087Q68.7438 14.5087 77.7439 10.6289Q86.7439 6.74907 93.6228-0.155309Q100.502-7.05969 104.413-16.0597Q108.324-25.0598 108.324-35.2606Q108.324-45.4615 104.413-54.4616Q100.502-63.4616 93.5973-70.366Q86.693-77.2704 77.6929-81.1502Q68.6929-85.03 58.441-85.03Q48.2515-85.03 39.2458-81.1502Q30.2401-77.2704 23.3923-70.366Q16.5446-63.4616 12.6336-54.4616Q8.72266-45.4615 8.72266-35.2606Q8.72266-25.0598 12.6336-16.0597Q16.5446-7.05969 23.4178-0.155309Q30.291 6.74907 39.2968 10.6289Q48.3025 14.5087 58.492 14.5087ZM42.0945-14.7349Q40.4409-14.7349 39.2602-15.9354Q38.0795-17.1359 38.0795-18.8291Q38.0795-20.4827 39.2518-21.655L52.7951-35.1983L39.2518-48.7417Q38.0795-49.914 38.0795-51.5675Q38.0795-53.2607 39.2602-54.4046Q40.4409-55.5485 42.0945-55.5485Q43.6858-55.5485 44.8694-54.4272L58.492-40.8442L72.2279-54.4782Q73.4001-55.6618 75.0027-55.6618Q76.7073-55.6618 77.888-54.4867Q79.0687-53.3117 79.0687-51.6695Q79.0687-49.9649 77.8455-48.7927L64.2512-35.1983L77.7945-21.7059Q79.0178-20.5846 79.0178-18.8291Q79.0178-17.1359 77.8116-15.9354Q76.6054-14.7349 74.9008-14.7349Q73.1453-14.7349 72.024-15.9185L58.492-29.5015L45.0223-15.9185Q43.8387-14.7349 42.0945-14.7349Z"/>
  </g>
  <g id="Light-M" transform="matrix(1 0 0 1 1095.44 1126)">
   <path d="M57.664 13.6807Q67.7687 13.6807 76.6123 9.87453Q85.456 6.06831 92.2245-0.716478Q98.993-7.50127 102.83-16.3449Q106.668-25.1886 106.668-35.2606Q106.668-45.3327 102.83-54.1764Q98.993-63.02 92.2082-69.8048Q85.4234-76.5896 76.5798-80.3958Q67.7361-84.202 57.6315-84.202Q47.5892-84.202 38.7306-80.3958Q29.8721-76.5896 23.1348-69.8048Q16.3974-63.02 12.56-54.1764Q8.72266-45.3327 8.72266-35.2606Q8.72266-25.1886 12.56-16.3449Q16.3974-7.50127 23.151-0.716478Q29.9047 6.06831 38.7632 9.87453Q47.6217 13.6807 57.664 13.6807ZM41.2482-15.5996Q39.9442-15.5996 39.021-16.5242Q38.0979-17.4487 38.0979-18.7555Q38.0979-20.0595 39.0494-21.011L53.2367-35.1983L39.0494-49.3857Q38.0979-50.3371 38.0979-51.6411Q38.0979-52.948 39.021-53.8251Q39.9442-54.7022 41.2482-54.7022Q42.4899-54.7022 43.4711-53.7833L57.664-39.5931L71.9519-53.8158Q72.9033-54.797 74.1748-54.797Q75.5113-54.797 76.4345-53.8888Q77.3576-52.9805 77.3576-51.7063Q77.3576-50.3697 76.3736-49.4182L62.1537-35.1983L76.341-21.0436Q77.325-20.1247 77.325-18.7555Q77.325-17.4487 76.3856-16.5242Q75.4462-15.5996 74.1097-15.5996Q72.7405-15.5996 71.8216-16.5809L57.664-30.771L43.5688-16.5809Q42.5875-15.5996 41.2482-15.5996Z"/>
  </g>
  <g id="Thin-M" transform="matrix(1 0 0 1 799.828 1126)">
   <path d="M56.569 12.5857Q66.479 12.5857 75.1158 8.87683Q83.7526 5.16794 90.3751-1.45867Q96.9976-8.08529 100.738-16.7221Q104.478-25.3589 104.478-35.2606Q104.478-45.1624 100.738-53.7992Q96.9976-62.436 90.371-69.0626Q83.7444-75.6892 75.1076-79.3981Q66.4707-83.107 56.5608-83.107Q46.7131-83.107 38.0493-79.3981Q29.3854-75.6892 22.7941-69.0626Q16.2027-62.436 12.4627-53.7992Q8.72266-45.1624 8.72266-35.2606Q8.72266-25.3589 12.4627-16.7221Q16.2027-8.08529 22.7982-1.45867Q29.3936 5.16794 38.0575 8.87683Q46.7214 12.5857 56.569 12.5857ZM40.1288-16.7433Q39.2871-16.7433 38.7047-17.3029Q38.1222-17.8624 38.1222-18.6582Q38.1222-19.4998 38.7817-20.1593L53.8207-35.1983L38.7817-50.2374Q38.1222-50.8968 38.1222-51.7385Q38.1222-52.5343 38.7047-53.0585Q39.2871-53.5828 40.1288-53.5828Q40.9081-53.5828 41.6217-52.9316L56.569-37.9384L71.5869-52.9398Q72.2463-53.6533 73.0798-53.6533Q73.9296-53.6533 74.5121-53.0979Q75.0945-52.5425 75.0945-51.7549Q75.0945-50.9051 74.4268-50.2456L59.3796-35.1983L74.4186-20.1675Q75.0863-19.5163 75.0863-18.6582Q75.0863-17.8624 74.4997-17.3029Q73.9132-16.7433 73.0633-16.7433Q72.2052-16.7433 71.554-17.4569L56.569-32.4501L41.6464-17.4569Q40.9328-16.7433 40.1288-16.7433Z"/>
  </g>
  <g id="Ultralight-M" transform="matrix(1 0 0 1 503.679 1126)">
   <path d="M56.0081 12.0248Q65.8184 12.0248 74.3492 8.36581Q82.8801 4.70678 89.4278-1.83882Q95.9756-8.38442 99.6657-16.9153Q103.356-25.4462 103.356-35.2606Q103.356-45.0751 99.6657-53.606Q95.9756-62.1369 89.43-68.6825Q82.8844-75.2281 74.3535-78.8871Q65.8226-82.5461 56.0124-82.5461Q46.2644-82.5461 37.7003-78.8871Q29.1361-75.2281 22.6196-68.6825Q16.103-62.1369 12.4128-53.606Q8.72266-45.0751 8.72266-35.2606Q8.72266-25.4462 12.4128-16.9153Q16.103-8.38442 22.6175-1.83882Q29.1319 4.70678 37.6961 8.36581Q46.2602 12.0248 56.0081 12.0248ZM39.5555-17.3291Q38.9506-17.3291 38.5427-17.7017Q38.1347-18.0743 38.1347-18.6083Q38.1347-19.2132 38.6446-19.7231L54.1199-35.1983L38.6446-50.6736Q38.1347-51.1835 38.1347-51.7883Q38.1347-52.3224 38.5427-52.6659Q38.9506-53.0095 39.5555-53.0095Q40.098-53.0095 40.6744-52.4953L56.0081-37.0908L71.3999-52.4911Q71.9098-53.0675 72.5189-53.0675Q73.1195-53.0675 73.5274-52.6928Q73.9354-52.3182 73.9354-51.7799Q73.9354-51.1793 73.4297-50.6694L57.9587-35.1983L73.434-19.7188Q73.9396-19.2047 73.9396-18.6083Q73.9396-18.0743 73.5338-17.7017Q73.128-17.3291 72.5274-17.3291Q71.931-17.3291 71.4169-17.9056L56.0081-33.3101L40.6617-17.9056Q40.0853-17.3291 39.5555-17.3291Z"/>
  </g>
  <g id="Black-S" transform="matrix(1 0 0 1 2884.57 696)">
   <path d="M48.8281 6.78711Q57.5195 6.78711 65.1123 3.51562Q72.7051 0.244141 78.4912-5.54199Q84.2773-11.3281 87.5488-18.9209Q90.8203-26.5137 90.8203-35.2051Q90.8203-43.8965 87.5488-51.4893Q84.2773-59.082 78.4912-64.8682Q72.7051-70.6543 65.1123-73.9258Q57.5195-77.1973 48.8281-77.1973Q40.1367-77.1973 32.5439-73.9258Q24.9512-70.6543 19.165-64.8682Q13.3789-59.082 10.1074-51.4893Q6.83594-43.8965 6.83594-35.2051Q6.83594-26.5137 10.1074-18.9209Q13.3789-11.3281 19.165-5.54199Q24.9512 0.244141 32.5439 3.51562Q40.1367 6.78711 48.8281 6.78711ZM37.7441-18.457Q35.3027-18.457 33.6426-20.1172Q31.9824-21.7773 31.9824-24.2676Q31.9824-26.5625 33.7402-28.2227L40.625-35.1562L33.7402-42.0898Q31.9824-43.75 31.9824-46.0449Q31.9824-48.5352 33.6426-50.1953Q35.3027-51.8555 37.7441-51.8555Q40.3809-51.8555 42.0898-50.1465L48.8281-43.4082L55.6152-50.1465Q57.3242-51.8555 59.9609-51.8555Q62.4023-51.8555 64.0625-50.1953Q65.7227-48.5352 65.7227-46.0449Q65.7227-43.75 63.9648-42.0898L57.1289-35.1562L63.9648-28.2227Q65.7227-26.5625 65.7227-24.2676Q65.7227-21.7773 64.0625-20.1172Q62.4023-18.457 59.9609-18.457Q57.3242-18.457 55.6152-20.166L48.8281-26.8555L42.0898-20.166Q40.3809-18.457 37.7441-18.457Z"/>
  </g>
  <g id="Heavy-S" transform="matrix(1 0 0 1 2588.47 696)">
   <path d="M48.2173 6.16479Q56.7704 6.16479 64.2537 2.9394Q71.737-0.285985 77.4425-5.99721Q83.1479-11.7084 86.3791-19.1917Q89.6102-26.675 89.6102-35.2166Q89.6102-43.7582 86.3791-51.2415Q83.1479-58.7248 77.4367-64.436Q71.7255-70.1472 64.2422-73.3726Q56.7589-76.598 48.2058-76.598Q39.6642-76.598 32.1809-73.3726Q24.6976-70.1472 18.9979-64.436Q13.2982-58.7248 10.0671-51.2415Q6.83594-43.7582 6.83594-35.2166Q6.83594-26.675 10.0671-19.1917Q13.2982-11.7084 19.0037-5.99721Q24.7092-0.285985 32.1924 2.9394Q39.6757 6.16479 48.2173 6.16479ZM36.7185-18.5262Q34.5075-18.5262 32.9914-20.048Q31.4753-21.5699 31.4753-23.8296Q31.4753-25.9287 33.0603-27.439L40.7518-35.1678L33.0603-42.8966Q31.4753-44.4069 31.4753-46.5059Q31.4753-48.7656 32.9914-50.276Q34.5075-51.7863 36.7185-51.7863Q39.0671-51.7863 40.6147-50.2502L48.2173-42.6591L55.8803-50.2617Q57.4279-51.8094 59.7765-51.8094Q61.999-51.8094 63.5151-50.2933Q65.0312-48.7772 65.0312-46.5289Q65.0312-44.4184 63.4347-42.9081L55.769-35.1678L63.4232-27.4505Q65.0197-25.9517 65.0197-23.8296Q65.0197-21.5699 63.4978-20.048Q61.9759-18.5262 59.7535-18.5262Q57.3703-18.5262 55.8342-20.0738L48.2173-27.6276L40.6493-20.0738Q39.1016-18.5262 36.7185-18.5262Z"/>
  </g>
  <g id="Bold-S" transform="matrix(1 0 0 1 2292.43 696)">
   <path d="M47.5342 5.46875Q55.9326 5.46875 63.2935 2.29492Q70.6543-0.878906 76.2695-6.50635Q81.8848-12.1338 85.0708-19.4946Q88.2568-26.8555 88.2568-35.2295Q88.2568-43.6035 85.0708-50.9644Q81.8848-58.3252 76.2573-63.9526Q70.6299-69.5801 63.269-72.7539Q55.9082-75.9277 47.5098-75.9277Q39.1357-75.9277 31.7749-72.7539Q24.4141-69.5801 18.811-63.9526Q13.208-58.3252 10.022-50.9644Q6.83594-43.6035 6.83594-35.2295Q6.83594-26.8555 10.022-19.4946Q13.208-12.1338 18.8232-6.50635Q24.4385-0.878906 31.7993 2.29492Q39.1602 5.46875 47.5342 5.46875ZM35.5713-18.6035Q33.6182-18.6035 32.2632-19.9707Q30.9082-21.3379 30.9082-23.3398Q30.9082-25.2197 32.2998-26.5625L40.8936-35.1807L32.2998-43.7988Q30.9082-45.1416 30.9082-47.0215Q30.9082-49.0234 32.2632-50.3662Q33.6182-51.709 35.5713-51.709Q37.5977-51.709 38.9648-50.3662L47.5342-41.8213L56.1768-50.3906Q57.5439-51.7578 59.5703-51.7578Q61.5479-51.7578 62.9028-50.4028Q64.2578-49.0479 64.2578-47.0703Q64.2578-45.166 62.8418-43.8232L54.248-35.1807L62.8174-26.5869Q64.2334-25.2686 64.2334-23.3398Q64.2334-21.3379 62.8662-19.9707Q61.499-18.6035 59.5215-18.6035Q57.4219-18.6035 56.0791-19.9707L47.5342-28.4912L39.0381-19.9707Q37.6709-18.6035 35.5713-18.6035Z"/>
  </g>
  <g id="Semibold-S" transform="matrix(1 0 0 1 1996.19 696)">
   <path d="M47.0632 4.98887Q55.355 4.98887 62.6314 1.85059Q69.9078-1.2877 75.4608-6.85737Q81.0139-12.4271 84.1688-19.7035Q87.3237-26.9799 87.3237-35.2384Q87.3237-43.4969 84.1688-50.7733Q81.0139-58.0497 75.4442-63.6194Q69.8745-69.1891 62.5981-72.3273Q55.3217-75.4656 47.0299-75.4656Q38.7714-75.4656 31.495-72.3273Q24.2186-69.1891 18.6822-63.6194Q13.1458-58.0497 9.99087-50.7733Q6.83594-43.4969 6.83594-35.2384Q6.83594-26.9799 9.99087-19.7035Q13.1458-12.4271 18.6988-6.85737Q24.2519-1.2877 31.5283 1.85059Q38.8047 4.98887 47.0632 4.98887ZM34.7804-18.6568Q33.005-18.6568 31.7611-19.9174Q30.5172-21.1779 30.5172-23.0021Q30.5172-24.731 31.7755-25.9582L40.9913-35.1896L31.7755-44.4209Q30.5172-45.6481 30.5172-47.377Q30.5172-49.2012 31.7611-50.4284Q33.005-51.6557 34.7804-51.6557Q36.5846-51.6557 37.8273-50.4462L47.0632-41.2437L56.3812-50.4795Q57.6239-51.7223 59.4281-51.7223Q61.2368-51.7223 62.4807-50.4784Q63.7246-49.2345 63.7246-47.4436Q63.7246-45.6814 62.433-44.4542L53.1994-35.1896L62.3997-25.9915Q63.6913-24.7976 63.6913-23.0021Q63.6913-21.1779 62.4308-19.9174Q61.1702-18.6568 59.3615-18.6568Q57.4574-18.6568 56.2479-19.8996L47.0632-29.0866L37.9272-19.8996Q36.6845-18.6568 34.7804-18.6568Z"/>
  </g>
  <g id="Medium-S" transform="matrix(1 0 0 1 1699.83 696)">
   <path d="M46.7061 4.625Q54.917 4.625 62.1294 1.51367Q69.3418-1.59766 74.8477-7.12354Q80.3535-12.6494 83.4849-19.8618Q86.6162-27.0742 86.6162-35.2451Q86.6162-43.416 83.4849-50.6284Q80.3535-57.8408 74.8276-63.3667Q69.3018-68.8926 62.0894-72.0039Q54.877-75.1152 46.666-75.1152Q38.4951-75.1152 31.2827-72.0039Q24.0703-68.8926 18.5845-63.3667Q13.0986-57.8408 9.96729-50.6284Q6.83594-43.416 6.83594-35.2451Q6.83594-27.0742 9.96729-19.8618Q13.0986-12.6494 18.6045-7.12354Q24.1104-1.59766 31.3228 1.51367Q38.5352 4.625 46.7061 4.625ZM34.1807-18.6973Q32.54-18.6973 31.3804-19.877Q30.2207-21.0566 30.2207-22.7461Q30.2207-24.3604 31.3779-25.5L41.0654-35.1963L31.3779-44.8926Q30.2207-46.0322 30.2207-47.6465Q30.2207-49.3359 31.3804-50.4756Q32.54-51.6152 34.1807-51.6152Q35.8164-51.6152 36.9648-50.5068L46.7061-40.8057L56.5361-50.5469Q57.6846-51.6953 59.3203-51.6953Q61.001-51.6953 62.1606-50.5356Q63.3203-49.376 63.3203-47.7266Q63.3203-46.0723 62.123-44.9326L52.4043-35.1963L62.083-25.54Q63.2803-24.4404 63.2803-22.7461Q63.2803-21.0566 62.1006-19.877Q60.9209-18.6973 59.2402-18.6973Q57.4844-18.6973 56.376-19.8457L46.7061-29.5381L37.085-19.8457Q35.9365-18.6973 34.1807-18.6973Z"/>
  </g>
  <g id="Regular-S" transform="matrix(1 0 0 1 1403.58 696)">
   <path d="M46.2402 4.15039Q54.3457 4.15039 61.4746 1.07422Q68.6035-2.00195 74.0479-7.4707Q79.4922-12.9395 82.5928-20.0684Q85.6934-27.1973 85.6934-35.2539Q85.6934-43.3105 82.5928-50.4395Q79.4922-57.5684 74.0234-63.0371Q68.5547-68.5059 61.4258-71.582Q54.2969-74.6582 46.1914-74.6582Q38.1348-74.6582 31.0059-71.582Q23.877-68.5059 18.457-63.0371Q13.0371-57.5684 9.93652-50.4395Q6.83594-43.3105 6.83594-35.2539Q6.83594-27.1973 9.93652-20.0684Q13.0371-12.9395 18.4814-7.4707Q23.9258-2.00195 31.0547 1.07422Q38.1836 4.15039 46.2402 4.15039ZM33.3984-18.75Q31.9336-18.75 30.8838-19.8242Q29.834-20.8984 29.834-22.4121Q29.834-23.877 30.8594-24.9023L41.1621-35.2051L30.8594-45.5078Q29.834-46.5332 29.834-47.998Q29.834-49.5117 30.8838-50.5371Q31.9336-51.5625 33.3984-51.5625Q34.8145-51.5625 35.8398-50.5859L46.2402-40.2344L56.7383-50.6348Q57.7637-51.6602 59.1797-51.6602Q60.6934-51.6602 61.7432-50.6104Q62.793-49.5605 62.793-48.0957Q62.793-46.582 61.7188-45.5566L51.3672-35.2051L61.6699-24.9512Q62.7441-23.9746 62.7441-22.4121Q62.7441-20.8984 61.6699-19.8242Q60.5957-18.75 59.082-18.75Q57.5195-18.75 56.543-19.7754L46.2402-30.127L35.9863-19.7754Q34.9609-18.75 33.3984-18.75Z"/>
  </g>
  <g id="Light-S" transform="matrix(1 0 0 1 1107.6 696)">
   <path d="M45.5078 3.41797Q53.4831 3.41797 60.4736 0.406901Q67.4642-2.60417 72.8109-7.96712Q78.1576-13.3301 81.193-20.3206Q84.2285-27.3112 84.2285-35.2539Q84.2285-43.1966 81.193-50.1872Q78.1576-57.1777 72.7946-62.5407Q67.4316-67.9036 60.4411-70.9147Q53.4505-73.9258 45.4753-73.9258Q37.5488-73.9258 30.5501-70.9147Q23.5514-67.9036 18.2292-62.5407Q12.9069-57.1777 9.87142-50.1872Q6.83594-43.1966 6.83594-35.2539Q6.83594-27.3112 9.87142-20.3206Q12.9069-13.3301 18.2454-7.96712Q23.584-2.60417 30.5827 0.406901Q37.5814 3.41797 45.5078 3.41797ZM32.6497-19.515Q31.4941-19.515 30.6722-20.3451Q29.8503-21.1751 29.8503-22.347Q29.8503-23.5026 30.6803-24.3327L41.5527-35.2051L30.6803-46.0775Q29.8503-46.9076 29.8503-48.0632Q29.8503-49.235 30.6722-50.0244Q31.4941-50.8138 32.6497-50.8138Q33.7565-50.8138 34.6029-50.0163L45.5078-39.1276L56.4941-50.0488Q57.3242-50.8952 58.4473-50.8952Q59.6354-50.8952 60.4574-50.0814Q61.2793-49.2676 61.2793-48.1283Q61.2793-46.9401 60.4167-46.11L49.5117-35.2051L60.3841-24.3652Q61.2467-23.5677 61.2467-22.347Q61.2467-21.1751 60.4085-20.3451Q59.5703-19.515 58.3822-19.515Q57.1615-19.515 56.3639-20.3613L45.5078-31.25L34.7005-20.3613Q33.8542-19.515 32.6497-19.515Z"/>
  </g>
  <g id="Thin-S" transform="matrix(1 0 0 1 811.863 696)">
   <path d="M44.5391 2.44928Q52.3422 2.44928 59.1498-0.47568Q65.9573-3.40064 71.1749-8.62368Q76.3924-13.8467 79.3418-20.6543Q82.2911-27.4619 82.2911-35.2539Q82.2911-43.0459 79.3418-49.8535Q76.3924-56.6611 71.1694-61.8841Q65.9463-67.1072 59.1387-70.0321Q52.3311-72.9571 44.5281-72.9571Q36.7739-72.9571 29.9474-70.0321Q23.1209-67.1072 17.9278-61.8841Q12.7347-56.6611 9.78531-49.8535Q6.83594-43.0459 6.83594-35.2539Q6.83594-27.4619 9.78531-20.6543Q12.7347-13.8467 17.9333-8.62368Q23.1319-3.40064 29.9584-0.47568Q36.7849 2.44928 44.5391 2.44928ZM31.6595-20.5267Q30.9129-20.5267 30.3924-21.0339Q29.8718-21.5411 29.8718-22.2609Q29.8718-23.0075 30.4435-23.5793L42.0694-35.2051L30.4435-46.8309Q29.8718-47.4027 29.8718-48.1493Q29.8718-48.8691 30.3924-49.3463Q30.9129-49.8236 31.6595-49.8236Q32.3573-49.8236 32.9669-49.2629L44.5391-37.6638L56.1712-49.2739Q56.743-49.8834 57.4786-49.8834Q58.2362-49.8834 58.7568-49.3818Q59.2773-48.8801 59.2773-48.1713Q59.2773-47.4137 58.6946-46.8419L47.0577-35.2051L58.6835-23.5903Q59.2663-23.0295 59.2663-22.2609Q59.2663-21.5411 58.7402-21.0339Q58.2142-20.5267 57.4565-20.5267Q56.6879-20.5267 56.1271-21.1363L44.5391-32.7353L32.9999-21.1363Q32.3904-20.5267 31.6595-20.5267Z"/>
  </g>
  <g id="Ultralight-S" transform="matrix(1 0 0 1 515.649 696)">
   <path d="M44.043 1.95312Q51.7578 1.95312 58.4717-0.927734Q65.1855-3.80859 70.3369-8.95996Q75.4883-14.1113 78.3936-20.8252Q81.2988-27.5391 81.2988-35.2539Q81.2988-42.9688 78.3936-49.6826Q75.4883-56.3965 70.3369-61.5479Q65.1855-66.6992 58.4717-69.5801Q51.7578-72.4609 44.043-72.4609Q36.377-72.4609 29.6387-69.5801Q22.9004-66.6992 17.7734-61.5479Q12.6465-56.3965 9.74121-49.6826Q6.83594-42.9688 6.83594-35.2539Q6.83594-27.5391 9.74121-20.8252Q12.6465-14.1113 17.7734-8.95996Q22.9004-3.80859 29.6387-0.927734Q36.377 1.95312 44.043 1.95312ZM31.1523-21.0449Q30.6152-21.0449 30.249-21.3867Q29.8828-21.7285 29.8828-22.2168Q29.8828-22.7539 30.3223-23.1934L42.334-35.2051L30.3223-47.2168Q29.8828-47.6562 29.8828-48.1934Q29.8828-48.6816 30.249-48.999Q30.6152-49.3164 31.1523-49.3164Q31.6406-49.3164 32.1289-48.877L44.043-36.9141L56.0059-48.877Q56.4453-49.3652 56.9824-49.3652Q57.5195-49.3652 57.8857-49.0234Q58.252-48.6816 58.252-48.1934Q58.252-47.6562 57.8125-47.2168L45.8008-35.2051L57.8125-23.1934Q58.252-22.7539 58.252-22.2168Q58.252-21.7285 57.8857-21.3867Q57.5195-21.0449 56.9824-21.0449Q56.4453-21.0449 56.0059-21.5332L44.043-33.4961L32.1289-21.5332Q31.6406-21.0449 31.1523-21.0449Z"/>
  </g>
 </g>
</svg>
